<?xml version="1.0" standalone="no"?>
<!DOCTYPE svg PUBLIC "-//W3C//DTD SVG 20010904//EN"
 "http://www.w3.org/TR/2001/REC-SVG-20010904/DTD/svg10.dtd">
<svg version="1.0" xmlns="http://www.w3.org/2000/svg"
 width="252.000000pt" height="252.000000pt" viewBox="0 0 252.000000 252.000000"
 preserveAspectRatio="xMidYMid meet">
<metadata>
Created by potrace 1.11, written by Peter Selinger 2001-2013
</metadata>
<g transform="translate(0.000000,252.000000) scale(0.100000,-0.100000)"
fill="#000000" stroke="none">
<path d="M633 2450 c2 -8 12 -13 22 -12 16 3 17 1 6 -12 -9 -11 -10 -16 -2
-16 6 0 11 5 11 10 0 6 0 13 0 18 0 4 -6 7 -12 7 -7 0 -17 5 -21 10 -5 6 -7 4
-4 -5z"/>
<path d="M760 2440 c6 -11 13 -20 16 -20 2 0 0 9 -6 20 -6 11 -13 20 -16 20
-2 0 0 -9 6 -20z"/>
<path d="M928 2444 c-43 -7 -82 -15 -87 -19 -6 -3 -27 -8 -48 -11 -20 -2 -40
-9 -44 -15 -4 -7 -11 -9 -17 -5 -6 3 -14 2 -17 -4 -4 -6 -14 -8 -23 -5 -11 3
-22 -3 -30 -16 -8 -12 -9 -18 -4 -15 6 3 12 3 15 -1 2 -5 3 -3 1 4 -5 23 9 21
32 -4 13 -14 24 -31 24 -37 0 -6 -10 0 -21 14 -15 18 -19 20 -15 6 4 -13 2
-17 -7 -13 -8 3 -20 1 -28 -4 -9 -6 -3 -8 19 -5 24 2 35 -1 42 -15 13 -24 13
-26 -6 -33 -12 -5 -14 -1 -9 17 6 21 5 21 -6 3 -10 -17 -8 -23 14 -40 25 -20
25 -22 9 -34 -15 -11 -14 -11 5 -2 25 12 21 40 -6 40 -15 1 -15 1 1 10 11 7
15 21 14 45 -2 19 1 35 5 35 5 0 9 -4 9 -9 0 -5 9 -13 20 -16 11 -3 20 -13 20
-21 0 -8 5 -14 11 -14 5 0 7 5 3 11 -5 8 -1 8 12 0 36 -21 58 -41 51 -48 -4
-3 -7 -4 -7 0 0 3 -12 -5 -26 -20 -14 -14 -23 -27 -21 -30 3 -2 16 7 30 21 15
14 30 26 34 26 13 0 39 -20 28 -21 -5 -1 -14 -2 -20 -4 -5 -1 -17 -3 -25 -3
-10 -2 -8 -7 8 -18 22 -15 47 -11 37 7 -4 5 1 9 9 9 23 0 20 -16 -6 -34 -20
-14 -24 -14 -41 2 -18 16 -20 16 -33 -3 -8 -10 -14 -23 -14 -28 0 -4 -4 -6
-10 -2 -5 3 -8 11 -6 18 1 7 1 9 -1 5 -3 -5 -9 -8 -14 -8 -6 0 -8 4 -4 9 9 15
-15 24 -30 11 -16 -13 -11 -31 8 -29 24 3 38 -1 33 -10 -4 -5 2 -8 11 -7 9 2
19 8 21 14 2 7 8 10 13 7 5 -4 6 2 2 12 -7 17 -6 17 21 0 27 -18 28 -18 51 3
22 20 25 21 45 7 13 -9 17 -17 11 -22 -6 -3 -11 -3 -11 1 0 4 -9 -1 -20 -11
-24 -22 -26 -9 -3 19 15 18 14 18 -7 -1 -23 -22 -23 -23 -5 -43 26 -28 9 -25
-27 6 -34 28 -59 20 -39 -13 11 -16 11 -15 6 5 -6 21 -5 23 12 13 29 -15 49
-41 33 -41 -8 0 -10 -3 -7 -6 4 -4 18 1 32 10 14 9 25 12 25 7 0 -6 -8 -15
-17 -20 -10 -6 -13 -11 -6 -11 6 0 21 14 33 30 12 17 27 30 34 30 20 0 49 -37
37 -45 -6 -3 -9 -17 -7 -30 3 -13 0 -26 -5 -29 -5 -2 -4 -3 3 -1 7 1 12 8 10
14 -1 6 2 11 8 11 5 0 10 5 10 11 0 5 -4 7 -10 4 -5 -3 -10 -1 -10 4 0 18 14
12 45 -21 17 -17 25 -28 19 -25 -13 8 -29 -20 -25 -42 2 -13 0 -13 -13 -2 -23
19 -20 5 3 -18 18 -18 20 -18 20 -3 2 44 5 53 18 47 8 -3 17 -5 19 -5 2 0 4
-5 4 -11 0 -5 -4 -8 -9 -5 -10 6 -25 -24 -16 -32 3 -3 5 0 5 6 0 24 36 11 53
-18 15 -25 16 -29 3 -24 -9 3 -13 11 -9 18 3 6 3 8 -2 4 -4 -4 -15 0 -23 10
-8 9 -6 4 3 -12 16 -27 16 -29 0 -23 -9 4 -19 7 -21 7 -3 0 -2 4 1 10 4 6 -1
7 -11 3 -16 -6 -15 -8 4 -16 12 -6 22 -14 22 -20 0 -5 6 -4 14 2 20 16 42 4
66 -35 24 -42 24 -45 5 -38 -8 4 -13 9 -11 13 2 3 -2 17 -11 31 -9 16 -12 18
-7 5 4 -11 6 -28 6 -37 0 -11 9 -20 23 -24 24 -6 52 -57 47 -83 -2 -8 1 -10
10 -5 7 4 10 4 6 0 -3 -4 0 -23 8 -41 7 -19 11 -42 7 -51 -4 -12 -3 -15 5 -10
7 4 12 4 13 -1 0 -4 2 -17 5 -28 7 -31 15 -78 19 -105 2 -14 7 -35 11 -47 5
-19 3 -21 -18 -17 l-23 5 23 -12 c12 -7 22 -19 23 -28 0 -9 2 -24 4 -33 4 -20
-6 -23 -22 -7 -8 8 -13 7 -18 -2 -5 -8 -4 -10 3 -5 7 4 12 2 12 -3 0 -6 6 -11
13 -11 11 0 13 -16 10 -72 -3 -40 -5 -87 -5 -105 -1 -18 -6 -29 -11 -26 -6 4
-8 -4 -4 -18 4 -14 3 -35 0 -48 -6 -23 -7 -23 -19 -6 -8 10 -16 16 -19 14 -3
-3 4 -15 15 -27 12 -12 16 -22 11 -22 -6 0 -8 -6 -5 -13 7 -20 -18 -38 -36
-27 -13 8 -12 10 3 10 9 0 17 5 17 10 0 18 -40 -9 -52 -35 -7 -15 -16 -21 -27
-18 -13 5 -14 4 -3 -8 11 -12 15 -11 26 3 12 16 14 16 31 0 19 -17 19 -17 1 6
-23 26 -16 40 8 17 9 -9 16 -12 16 -6 0 6 5 11 11 11 7 0 5 -10 -5 -25 -9 -14
-14 -25 -11 -25 3 0 0 -10 -7 -22 -6 -13 -13 -29 -14 -36 -1 -8 -9 -28 -17
-45 -8 -18 -21 -47 -28 -65 -8 -17 -19 -32 -25 -32 -6 0 -17 -7 -24 -15 -9
-10 -9 -15 -1 -15 6 0 11 5 11 12 0 6 3 9 6 6 7 -8 -15 -50 -35 -65 -9 -7 -12
-13 -7 -13 5 0 3 -7 -4 -15 -16 -19 -39 -3 -41 29 -1 16 -2 17 -6 4 -2 -10 2
-27 11 -39 14 -21 12 -49 -5 -49 -4 0 -5 7 -2 17 5 11 3 14 -6 9 -7 -5 -11
-16 -8 -26 3 -11 -15 -38 -49 -75 -48 -53 -55 -57 -70 -44 -16 13 -16 12 -6
-8 8 -14 9 -24 2 -28 -5 -3 -10 -4 -10 0 0 3 -15 -9 -34 -27 -46 -45 -66 -60
-66 -51 0 4 -7 -3 -16 -15 -8 -12 -22 -22 -30 -22 -8 0 -14 -6 -14 -12 0 -9
-3 -8 -10 2 -6 9 -5 17 3 22 8 5 8 8 1 8 -12 0 -44 -32 -44 -45 0 -5 7 0 16
11 10 12 14 14 11 4 -2 -8 -13 -19 -25 -25 -12 -5 -22 -13 -22 -18 0 -4 -4 -5
-10 -2 -5 3 -10 1 -10 -4 0 -30 -37 21 -44 61 -3 18 -18 19 -35 4 -15 -13 -20
-14 -24 -4 -3 7 -6 8 -6 2 -1 -5 5 -18 12 -27 9 -13 16 -14 27 -6 13 9 12 10
-2 5 -21 -6 -23 5 -6 22 13 13 29 16 26 5 0 -5 6 -24 15 -43 8 -19 13 -37 10
-40 -3 -3 -8 1 -10 8 -3 6 -9 12 -15 12 -6 0 -5 -7 3 -16 12 -15 11 -16 -11
-10 -23 6 -23 6 3 -9 22 -13 31 -14 43 -4 8 6 14 7 14 1 0 -16 -28 -34 -41
-26 -8 4 -9 3 -5 -4 4 -7 2 -12 -3 -12 -6 0 -11 -5 -11 -11 0 -6 9 -4 21 5 22
15 53 11 43 -6 -4 -6 2 -5 14 1 12 6 24 17 28 24 5 9 4 9 -7 0 -16 -15 -33
-17 -24 -3 4 6 -1 7 -12 3 -16 -6 -16 -5 -4 10 9 11 18 14 25 8 11 -10 16 -11
39 -11 8 0 19 -10 26 -23 6 -12 9 -14 7 -5 -4 12 0 16 15 12 10 -2 28 -6 38
-8 89 -20 320 -27 435 -13 297 36 599 218 782 473 90 125 178 326 199 450 3
21 9 57 12 79 9 56 9 227 1 305 -46 414 -347 792 -750 944 -134 50 -234 68
-388 71 -83 1 -178 -3 -222 -11z m-33 -244 c3 -5 2 -10 -4 -10 -5 0 -13 5 -16
10 -3 6 -2 10 4 10 5 0 13 -4 16 -10z m-120 -30 c-3 -5 -11 -10 -16 -10 -6 0
-7 5 -4 10 3 6 11 10 16 10 6 0 7 -4 4 -10z m209 -39 c-16 -15 -28 -18 -52
-12 -12 3 27 27 47 29 24 2 24 2 5 -17z"/>
<path d="M531 2438 c-1 -24 13 -30 34 -14 14 10 15 15 5 21 -8 5 -11 4 -7 -2
4 -6 0 -13 -7 -16 -9 -4 -17 1 -19 11 -4 16 -5 16 -6 0z"/>
<path d="M600 2435 c-7 -9 -11 -17 -9 -20 3 -2 10 5 17 15 14 24 10 26 -8 5z"/>
<path d="M690 2440 c0 -5 5 -10 10 -10 6 0 10 5 10 10 0 6 -4 10 -10 10 -5 0
-10 -4 -10 -10z"/>
<path d="M786 2438 c3 -4 9 -8 15 -8 5 0 9 4 9 8 0 5 -7 9 -15 9 -8 0 -12 -4
-9 -9z"/>
<path d="M825 2440 c-3 -5 -1 -10 4 -10 6 0 11 5 11 10 0 6 -2 10 -4 10 -3 0
-8 -4 -11 -10z"/>
<path d="M500 2433 c0 -6 -8 -9 -19 -6 -26 7 -35 -24 -11 -37 14 -7 20 -7 20
0 0 5 -7 10 -16 10 -8 0 -12 5 -9 11 4 6 13 8 21 5 14 -5 30 11 20 21 -3 4 -6
2 -6 -4z"/>
<path d="M435 2419 c-4 -6 -5 -12 -2 -15 2 -3 7 2 10 11 7 17 1 20 -8 4z"/>
<path d="M610 2409 c-7 -11 -9 -23 -7 -26 3 -2 8 5 12 16 3 12 11 18 17 15 7
-4 8 -2 4 4 -10 16 -14 15 -26 -9z"/>
<path d="M714 2416 c-10 -8 -16 -18 -11 -22 4 -4 7 -2 7 4 0 7 6 12 14 12 8 0
18 5 21 10 9 15 -8 12 -31 -4z"/>
<path d="M330 2407 c0 -2 6 -10 14 -16 11 -9 16 -9 22 1 4 7 4 10 -1 6 -4 -4
-14 -3 -22 3 -7 6 -13 9 -13 6z"/>
<path d="M381 2388 c-7 -11 -7 -18 -1 -18 5 0 10 5 10 10 0 6 7 10 15 10 8 0
15 4 15 8 0 16 -27 9 -39 -10z"/>
<path d="M506 2402 c-2 -4 4 -8 14 -8 10 0 16 4 14 8 -3 4 -9 8 -14 8 -5 0
-11 -4 -14 -8z"/>
<path d="M555 2399 c-11 -16 -1 -19 13 -3 7 8 8 14 3 14 -5 0 -13 -5 -16 -11z"/>
<path d="M299 2382 c-13 -15 -12 -16 4 -3 17 13 17 12 12 -20 -3 -18 -3 -31 0
-27 11 10 15 57 6 62 -5 3 -15 -2 -22 -12z"/>
<path d="M630 2391 c0 -6 5 -13 12 -17 6 -4 8 -3 4 4 -3 5 0 13 6 15 8 3 6 6
-4 6 -10 1 -18 -3 -18 -8z"/>
<path d="M430 2380 c0 -5 5 -10 10 -10 6 0 10 5 10 10 0 6 -4 10 -10 10 -5 0
-10 -4 -10 -10z"/>
<path d="M581 2374 c12 -15 11 -16 -11 -10 -21 6 -22 5 -7 -4 9 -6 21 -8 27
-5 11 7 2 35 -12 35 -6 0 -4 -7 3 -16z"/>
<path d="M270 2371 c0 -10 19 -25 25 -20 1 2 -3 10 -11 17 -8 7 -14 8 -14 3z"/>
<path d="M508 2373 c6 -2 18 -2 25 0 6 3 1 5 -13 5 -14 0 -19 -2 -12 -5z"/>
<path d="M350 2363 c14 -6 13 -24 -1 -20 -6 1 -14 -5 -16 -13 -4 -12 -3 -12 5
-2 5 8 13 13 18 13 14 -1 10 22 -4 25 -7 1 -8 0 -2 -3z"/>
<path d="M408 2363 c6 -2 12 -9 12 -14 0 -6 -4 -8 -8 -5 -5 3 -20 -3 -35 -12
l-26 -18 22 -13 c19 -13 21 -12 10 1 -13 15 -8 28 9 28 5 0 6 -6 2 -12 -4 -7
3 -3 16 8 22 22 20 45 -3 43 -9 0 -9 -2 1 -6z"/>
<path d="M454 2359 c-3 -6 -1 -16 6 -22 10 -9 12 -8 7 5 -4 11 0 18 11 21 16
4 16 5 0 6 -9 0 -20 -4 -24 -10z"/>
<path d="M610 2366 c0 -2 7 -7 16 -10 8 -3 12 -2 9 4 -6 10 -25 14 -25 6z"/>
<path d="M536 2342 c-3 -5 1 -18 10 -28 14 -18 15 -18 4 4 -6 13 -7 22 -1 22
5 0 12 -5 14 -10 3 -6 4 -5 3 2 -3 15 -22 22 -30 10z"/>
<path d="M593 2331 c-3 -12 -9 -21 -14 -21 -5 0 -9 -5 -9 -11 0 -8 4 -9 13 0
14 11 27 5 27 -11 0 -5 -4 -6 -10 -3 -6 4 -7 -1 -3 -11 4 -11 3 -15 -5 -10
-16 10 -26 -13 -12 -29 13 -16 31 -11 29 8 -3 27 1 38 14 30 6 -4 4 5 -5 20
-20 30 -23 47 -8 47 6 0 9 -5 8 -11 -2 -6 4 -14 12 -16 12 -4 12 -3 2 5 -8 5
-13 13 -12 18 3 19 -22 15 -27 -5z m7 -92 c0 -6 -4 -7 -10 -4 -5 3 -10 11 -10
16 0 6 5 7 10 4 6 -3 10 -11 10 -16z"/>
<path d="M510 2331 c0 -7 -4 -9 -10 -6 -6 4 -7 -1 -3 -11 6 -15 7 -15 15 1 6
9 7 19 4 22 -3 4 -6 1 -6 -6z"/>
<path d="M420 2314 c-11 -13 -10 -16 8 -21 25 -6 27 -14 10 -32 -10 -11 -8
-10 10 0 29 18 28 27 -3 35 -14 3 -22 10 -19 16 3 5 13 7 21 4 8 -3 11 -1 8 4
-9 14 -21 12 -35 -6z"/>
<path d="M470 2310 c0 -5 5 -10 11 -10 5 0 7 5 4 10 -3 6 -8 10 -11 10 -2 0
-4 -4 -4 -10z"/>
<path d="M516 2295 c-3 -9 -12 -12 -23 -9 -15 5 -16 4 -3 -5 8 -6 11 -11 5
-11 -5 0 -1 -7 9 -15 11 -8 25 -15 30 -15 6 1 0 7 -14 15 -14 8 -23 15 -20 15
44 10 58 7 53 -8 -4 -14 -3 -15 5 -2 14 19 5 32 -19 25 -14 -5 -17 -3 -13 9 3
9 4 16 1 16 -3 0 -7 -7 -11 -15z"/>
<path d="M750 2303 c0 -6 6 -14 13 -17 10 -5 10 -7 0 -12 -15 -7 -17 -24 -4
-24 17 0 22 34 6 49 -9 9 -15 11 -15 4z"/>
<path d="M635 2290 c3 -5 8 -10 11 -10 2 0 4 5 4 10 0 6 -5 10 -11 10 -5 0 -7
-4 -4 -10z"/>
<path d="M669 2293 c-1 -5 -1 -11 0 -15 0 -5 -3 -8 -9 -8 -5 0 -10 -5 -10 -11
0 -8 5 -8 15 1 8 7 13 16 10 20 -3 5 1 11 7 13 10 4 10 6 1 6 -7 1 -14 -2 -14
-6z"/>
<path d="M407 2279 c7 -7 15 -10 18 -7 3 3 -2 9 -12 12 -14 6 -15 5 -6 -5z"/>
<path d="M824 2253 c-1 -13 1 -21 5 -16 3 4 10 10 14 14 4 3 2 11 -5 17 -10 8
-13 5 -14 -15z"/>
<path d="M786 2254 c-9 -24 -7 -27 9 -10 17 17 19 26 6 26 -5 0 -12 -7 -15
-16z"/>
<path d="M470 2251 c0 -9 30 -24 36 -18 2 1 -6 8 -16 15 -11 7 -20 8 -20 3z"/>
<path d="M665 2240 c-3 -5 0 -7 8 -4 8 3 18 1 21 -4 3 -6 -6 -13 -19 -16 -15
-4 -23 -11 -19 -17 4 -8 -1 -9 -17 -5 -22 6 -22 6 -5 -5 15 -9 21 -9 30 3 6 8
19 17 30 21 15 6 16 10 6 22 -14 17 -26 19 -35 5z"/>
<path d="M543 2233 c-7 -3 -13 -9 -13 -15 0 -6 6 -6 15 2 20 17 19 1 -2 -24
-15 -18 -14 -18 7 1 24 22 19 46 -7 36z"/>
<path d="M620 2225 c-9 -10 -9 -15 -1 -15 6 0 11 5 11 11 0 5 5 7 10 4 6 -3
10 -1 10 4 0 16 -16 13 -30 -4z"/>
<path d="M792 2224 c-7 -8 -8 -14 -3 -14 10 0 25 19 20 25 -2 1 -10 -3 -17
-11z"/>
<path d="M511 2204 c0 -11 3 -14 6 -6 3 7 2 16 -1 19 -3 4 -6 -2 -5 -13z"/>
<path d="M580 2194 c0 -8 -3 -13 -8 -10 -4 2 -15 -2 -25 -9 -10 -7 -14 -16 -9
-19 6 -3 13 1 16 10 3 8 10 13 15 9 6 -3 15 4 21 15 7 13 7 20 0 20 -5 0 -10
-7 -10 -16z"/>
<path d="M740 2200 c-8 -5 -10 -10 -5 -10 6 0 17 5 25 10 8 5 11 10 5 10 -5 0
-17 -5 -25 -10z"/>
<path d="M596 2175 c-3 -9 -6 -22 -5 -28 0 -7 5 -1 10 12 5 13 8 26 5 28 -2 2
-6 -3 -10 -12z"/>
<path d="M696 2182 c-2 -4 -1 -14 4 -22 7 -11 12 -12 21 -3 6 6 8 16 5 22 -8
13 -23 14 -30 3z m24 -12 c0 -5 -2 -10 -4 -10 -3 0 -8 5 -11 10 -3 6 -1 10 4
10 6 0 11 -4 11 -10z"/>
<path d="M670 2171 c0 -7 -4 -9 -10 -6 -5 3 -7 0 -5 -7 4 -9 -2 -14 -16 -15
-17 -2 -18 1 -9 13 8 8 8 14 2 14 -20 0 -21 -30 -2 -40 16 -8 22 -6 36 15 9
14 14 28 10 32 -3 3 -6 1 -6 -6z"/>
<path d="M570 2140 c6 -11 13 -20 16 -20 2 0 0 9 -6 20 -6 11 -13 20 -16 20
-2 0 0 -9 6 -20z"/>
<path d="M667 2124 c-17 -22 -17 -24 4 -34 11 -7 23 -9 27 -6 3 3 0 6 -8 6
-10 0 -10 3 0 15 17 20 31 19 24 -2 -5 -15 -4 -16 5 -3 16 23 -5 37 -27 17
-26 -24 -39 -21 -17 3 10 11 16 22 14 24 -2 2 -12 -7 -22 -20z"/>
<path d="M730 2143 c0 -6 7 -13 15 -17 17 -6 21 -27 4 -23 -21 4 -21 -24 0
-30 12 -3 21 -9 21 -14 0 -5 5 -9 11 -9 8 0 9 4 0 13 -6 8 -8 17 -4 20 9 10
25 9 19 -1 -2 -4 5 -9 17 -9 19 -2 20 -1 5 8 -11 6 -15 16 -11 26 5 13 1 12
-17 -5 -25 -23 -50 -29 -50 -11 0 5 5 7 10 4 6 -3 13 1 16 9 3 9 10 13 15 10
5 -3 6 3 2 12 -4 12 -8 14 -11 5 -3 -9 -9 -8 -23 5 -10 9 -19 12 -19 7z"/>
<path d="M612 2114 c10 -10 20 -16 22 -13 3 3 -5 11 -17 18 -21 13 -21 12 -5
-5z"/>
<path d="M1002 2113 c-7 -2 -17 -14 -23 -25 -7 -12 -7 -18 -1 -14 5 3 12 -1
16 -9 3 -8 10 -15 16 -15 6 0 4 7 -4 16 -9 8 -16 21 -16 27 0 7 8 3 16 -8 16
-19 16 -19 9 5 -7 23 -7 24 11 10 18 -14 18 -14 5 3 -7 9 -14 17 -15 16 0 0
-7 -3 -14 -6z"/>
<path d="M832 2101 c-11 -6 -10 -10 4 -15 9 -3 19 -4 22 -1 3 3 0 5 -7 5 -7 0
-9 5 -6 10 7 12 4 12 -13 1z"/>
<path d="M876 2094 c-8 -20 -8 -24 2 -24 4 0 8 9 9 20 2 24 -3 26 -11 4z"/>
<path d="M647 2079 c7 -7 15 -10 18 -7 3 3 -2 9 -12 12 -14 6 -15 5 -6 -5z"/>
<path d="M717 2063 c6 -16 5 -16 -10 -4 -23 18 -22 6 2 -18 18 -18 19 -18 19
5 0 14 -4 27 -9 30 -5 3 -6 -3 -2 -13z"/>
<path d="M636 2057 c3 -10 9 -15 12 -12 3 3 0 11 -7 18 -10 9 -11 8 -5 -6z"/>
<path d="M834 2054 c-18 -14 -18 -15 4 -4 18 9 22 8 22 -4 0 -20 36 -40 45
-25 4 6 4 13 1 16 -3 4 -6 1 -6 -5 0 -6 -7 -9 -15 -6 -8 4 -15 12 -15 19 0 22
-16 26 -36 9z"/>
<path d="M890 2055 c-11 -13 -10 -14 4 -9 9 3 16 10 16 15 0 13 -6 11 -20 -6z"/>
<path d="M666 2043 c-4 -9 -4 -18 -1 -21 3 -3 5 1 5 8 0 9 6 8 20 -5 26 -23
26 -11 1 14 -17 17 -20 17 -25 4z"/>
<path d="M801 2044 c0 -11 3 -14 6 -6 3 7 2 16 -1 19 -3 4 -6 -2 -5 -13z"/>
<path d="M921 2057 c-2 -23 20 -45 41 -40 22 4 22 4 4 -11 -11 -9 -17 -18 -14
-21 9 -9 39 26 32 37 -3 5 -15 7 -26 5 -12 -4 -18 -1 -15 6 4 13 20 13 52 2
11 -3 7 1 -8 10 -21 12 -32 14 -42 5 -10 -8 -14 -8 -18 2 -3 7 -6 9 -6 5z"/>
<path d="M740 2046 c0 -3 7 -12 16 -20 16 -17 34 -13 34 7 0 7 -4 6 -10 -3 -8
-12 -10 -12 -16 3 -5 15 -24 25 -24 13z"/>
<path d="M1063 2044 c4 -4 0 -16 -10 -26 -21 -24 -12 -23 16 1 20 17 20 19 4
25 -10 4 -14 4 -10 0z"/>
<path d="M806 2014 c-11 -8 -16 -14 -10 -14 13 0 39 18 34 24 -3 2 -14 -2 -24
-10z"/>
<path d="M720 2000 c-8 -5 -12 -11 -10 -14 3 -2 14 2 24 10 22 15 10 19 -14 4z"/>
<path d="M866 1996 c10 -8 21 -12 24 -10 5 6 -21 24 -34 24 -6 0 -1 -6 10 -14z"/>
<path d="M906 2002 c-2 -4 4 -8 14 -8 10 0 16 4 14 8 -3 4 -9 8 -14 8 -5 0
-11 -4 -14 -8z"/>
<path d="M1020 2001 c0 -6 4 -13 10 -16 6 -3 7 1 4 9 -7 18 -14 21 -14 7z"/>
<path d="M739 1979 c-13 -11 -19 -18 -13 -15 6 3 18 -4 27 -15 20 -23 37 -17
37 12 0 11 5 17 10 14 6 -3 10 -1 10 5 0 20 -24 4 -30 -19 l-5 -23 -20 23
c-18 20 -18 22 -2 16 10 -4 16 -3 12 2 -3 5 1 12 7 14 8 4 9 6 2 6 -7 1 -22
-8 -35 -20z"/>
<path d="M836 1987 c12 -7 19 -19 17 -27 -4 -13 -3 -13 6 0 8 11 6 18 -6 28
-9 6 -22 12 -27 12 -6 -1 -2 -6 10 -13z"/>
<path d="M990 1980 c0 -5 5 -10 10 -10 6 0 10 5 10 10 0 6 -4 10 -10 10 -5 0
-10 -4 -10 -10z"/>
<path d="M908 1973 c6 -2 18 -2 25 0 6 3 1 5 -13 5 -14 0 -19 -2 -12 -5z"/>
<path d="M815 1959 c-11 -16 -1 -19 13 -3 7 8 8 14 3 14 -5 0 -13 -5 -16 -11z"/>
<path d="M875 1960 c-4 -6 -4 -14 0 -19 3 -6 -3 -14 -12 -20 -10 -6 -13 -10
-8 -11 20 0 35 17 29 33 -5 13 -2 16 10 11 9 -3 16 -4 16 -1 0 10 -30 16 -35
7z"/>
<path d="M950 1960 c0 -5 7 -7 15 -4 8 4 15 8 15 10 0 2 -7 4 -15 4 -8 0 -15
-4 -15 -10z"/>
<path d="M1010 1960 c-8 -5 -10 -10 -5 -10 6 0 17 5 25 10 8 5 11 10 5 10 -5
0 -17 -5 -25 -10z"/>
<path d="M1050 1951 c0 -5 5 -13 10 -16 6 -3 10 -2 10 4 0 5 -4 13 -10 16 -5
3 -10 2 -10 -4z"/>
<path d="M835 1940 c3 -6 1 -10 -6 -10 -7 0 -10 -3 -6 -6 3 -3 13 -2 22 4 16
8 16 9 1 15 -10 4 -15 3 -11 -3z"/>
<path d="M913 1931 c-3 -12 -9 -21 -14 -21 -5 0 -9 -5 -9 -11 0 -8 4 -9 13 0
8 6 17 8 20 4 10 -9 9 -25 -1 -19 -4 2 -9 -5 -9 -16 -2 -20 -2 -20 14 1 11 17
12 26 4 34 -14 14 -14 37 0 37 5 0 7 -5 4 -10 -3 -6 1 -13 9 -16 9 -3 13 -10
10 -15 -3 -5 3 -6 12 -2 12 4 14 8 5 11 -9 3 -8 9 5 23 9 10 12 19 7 19 -6 0
-13 -7 -17 -15 -6 -17 -27 -21 -23 -4 4 21 -24 21 -30 0z"/>
<path d="M1030 1941 c0 -6 4 -13 10 -16 6 -3 7 1 4 9 -7 18 -14 21 -14 7z"/>
<path d="M998 1935 c0 -6 -2 -14 -3 -20 -2 -5 -3 -16 -4 -23 0 -7 -5 -11 -10
-8 -5 4 -8 -1 -7 -10 3 -18 34 -39 43 -30 4 3 1 6 -6 6 -7 0 -9 4 -6 10 4 6
-1 7 -10 3 -15 -5 -15 -3 -4 15 7 11 16 19 20 16 16 -10 20 19 5 34 -9 9 -17
12 -18 7z m22 -26 c0 -6 -4 -7 -10 -4 -5 3 -10 11 -10 16 0 6 5 7 10 4 6 -3
10 -11 10 -16z"/>
<path d="M735 1920 c3 -5 8 -10 11 -10 2 0 4 5 4 10 0 6 -5 10 -11 10 -5 0 -7
-4 -4 -10z"/>
<path d="M793 1923 c4 -3 3 -11 -3 -18 -6 -7 -2 -26 12 -54 19 -39 22 -41 36
-27 14 13 14 18 3 28 -11 10 -12 10 -7 1 4 -7 4 -18 1 -23 -4 -6 -15 6 -26 27
-13 24 -16 40 -9 47 13 13 13 26 -2 26 -6 0 -8 -3 -5 -7z"/>
<path d="M1068 1913 c6 -2 10 -9 7 -14 -4 -5 1 -6 10 -2 13 5 14 7 3 14 -7 5
-17 8 -23 8 -5 0 -4 -3 3 -6z"/>
<path d="M815 1900 c-8 -13 3 -30 18 -29 9 0 9 2 0 6 -7 2 -13 9 -13 14 0 6 8
5 20 -1 11 -6 20 -8 20 -6 0 12 -39 26 -45 16z"/>
<path d="M1047 1888 c9 -34 22 -48 41 -41 15 6 15 5 3 -10 -7 -9 -17 -15 -21
-12 -16 10 -21 -15 -8 -34 14 -19 14 -19 28 2 12 19 11 21 -2 10 -8 -7 -18
-10 -21 -6 -10 9 -9 25 1 19 4 -2 16 2 27 11 20 14 20 15 1 28 -10 8 -23 12
-27 9 -5 -3 -9 4 -9 15 0 11 -4 22 -9 25 -5 4 -7 -4 -4 -16z"/>
<path d="M870 1891 c0 -10 19 -25 25 -20 1 2 -3 10 -11 17 -8 7 -14 8 -14 3z"/>
<path d="M1112 1880 c0 -14 2 -19 5 -12 2 6 2 18 0 25 -3 6 -5 1 -5 -13z"/>
<path d="M1027 1884 c-3 -4 -2 -14 3 -24 5 -10 6 -20 3 -24 -3 -3 -1 -6 6 -6
9 0 11 6 6 18 -4 9 -8 23 -8 30 0 14 -1 14 -10 6z"/>
<path d="M1143 1875 c-18 -20 -16 -30 2 -15 12 10 16 8 24 -11 7 -17 10 -19
10 -7 1 9 -4 20 -9 23 -6 4 -8 11 -5 16 9 14 -9 10 -22 -6z"/>
<path d="M934 1855 c-9 -14 -14 -28 -10 -32 3 -3 6 -1 6 6 0 7 4 9 10 6 6 -4
7 1 3 12 -6 17 -5 17 14 1 11 -10 24 -18 29 -18 4 0 -2 7 -14 16 -12 8 -20 20
-17 25 14 22 -6 7 -21 -16z"/>
<path d="M780 1850 c6 -11 13 -20 16 -20 2 0 0 9 -6 20 -6 11 -13 20 -16 20
-2 0 0 -9 6 -20z"/>
<path d="M864 1855 c11 -8 24 -15 30 -15 5 0 1 7 -10 15 -10 8 -23 14 -29 14
-5 0 -1 -6 9 -14z"/>
<path d="M1116 1825 c-9 -26 -7 -32 5 -12 6 10 9 21 6 23 -2 3 -7 -2 -11 -11z"/>
<path d="M849 1814 c-6 -7 -9 -19 -6 -26 3 -7 6 -4 6 7 1 17 3 18 12 5 9 -13
10 -12 5 3 -5 15 -2 17 13 12 11 -3 22 -2 25 3 9 15 -42 11 -55 -4z"/>
<path d="M1013 1805 c0 -28 20 -49 39 -42 7 3 4 6 -7 6 -17 1 -18 3 -5 12 13
9 12 10 -3 5 -15 -5 -17 -2 -12 13 3 11 2 22 -3 25 -5 3 -9 -5 -9 -19z"/>
<path d="M796 1807 c3 -10 9 -15 12 -12 3 3 0 11 -7 18 -10 9 -11 8 -5 -6z"/>
<path d="M938 1807 c-7 -7 -22 -16 -32 -20 -18 -7 -18 -9 -3 -24 14 -14 19
-15 29 -4 11 10 10 11 -3 6 -10 -4 -20 -2 -23 3 -3 6 5 13 19 16 14 4 25 11
25 17 0 6 5 7 10 4 6 -3 10 -1 10 4 0 15 -16 14 -32 -2z"/>
<path d="M981 1799 c-7 -12 -10 -23 -8 -26 3 -3 11 5 17 17 15 28 8 35 -9 9z"/>
<path d="M1140 1810 c-8 -5 -11 -13 -6 -17 5 -4 11 -2 13 5 6 17 28 15 43 -3
7 -9 15 -13 18 -10 7 6 -29 34 -43 35 -5 0 -17 -4 -25 -10z"/>
<path d="M1166 1785 c4 -8 11 -15 16 -15 6 0 5 6 -2 15 -7 8 -14 15 -16 15 -2
0 -1 -7 2 -15z"/>
<path d="M815 1780 c-3 -5 -1 -10 4 -10 6 0 11 5 11 10 0 6 -2 10 -4 10 -3 0
-8 -4 -11 -10z"/>
<path d="M1089 1767 c-8 -17 -17 -23 -27 -20 -10 4 -13 2 -8 -5 4 -7 11 -12
15 -12 12 0 44 50 37 57 -3 3 -10 -6 -17 -20z"/>
<path d="M1220 1781 c0 -5 7 -12 16 -15 14 -5 15 -4 4 9 -14 17 -20 19 -20 6z"/>
<path d="M854 1768 c-8 -13 24 -40 39 -31 5 3 6 -3 3 -15 -4 -11 -2 -23 3 -26
11 -7 51 31 51 48 0 6 -12 -2 -26 -19 -17 -20 -24 -23 -20 -11 8 23 -10 47
-30 39 -8 -3 -14 -1 -14 5 0 6 6 13 13 15 9 4 9 6 0 6 -6 1 -15 -4 -19 -11z"/>
<path d="M950 1775 c0 -5 5 -17 10 -25 5 -8 10 -10 10 -5 0 6 -5 17 -10 25 -5
8 -10 11 -10 5z"/>
<path d="M1116 1763 c-9 -22 16 -37 30 -18 6 8 14 12 18 8 4 -4 4 1 0 11 -7
17 -8 17 -19 -3 -12 -23 -27 -19 -18 5 3 8 3 14 0 14 -3 0 -8 -8 -11 -17z"/>
<path d="M984 1758 c-4 -7 -3 -8 4 -4 7 4 17 4 23 0 7 -4 1 -11 -17 -19 -24
-9 -26 -12 -11 -18 10 -4 16 -3 13 2 -3 5 4 11 16 14 18 5 19 8 8 21 -15 19
-26 20 -36 4z"/>
<path d="M1189 1759 c-11 -7 -11 -9 -1 -9 8 0 10 -5 6 -12 -5 -8 -1 -8 12 2
10 8 20 15 22 16 2 1 -3 4 -11 7 -8 3 -20 1 -28 -4z"/>
<path d="M1235 1740 c-4 -6 -1 -18 6 -26 6 -8 8 -18 4 -22 -4 -4 -10 -1 -12 6
-3 6 -9 12 -14 12 -5 0 -4 -9 3 -20 11 -18 14 -18 31 -3 15 15 16 18 3 25 -8
5 -13 15 -10 23 7 17 -2 20 -11 5z"/>
<path d="M1170 1731 c0 -10 19 -25 25 -20 1 2 -3 10 -11 17 -8 7 -14 8 -14 3z"/>
<path d="M861 1717 c-1 -11 -6 -15 -13 -11 -7 5 -8 3 -3 -5 10 -16 29 2 22 21
-4 8 -6 7 -6 -5z"/>
<path d="M1021 1721 c-11 -7 -9 -10 9 -16 12 -4 27 -2 32 3 8 8 4 9 -13 6 -19
-5 -21 -4 -9 5 18 13 1 15 -19 2z"/>
<path d="M1085 1720 c-3 -6 1 -7 9 -4 18 7 21 14 7 14 -6 0 -13 -4 -16 -10z"/>
<path d="M950 1711 c0 -10 30 -24 37 -17 3 2 -5 9 -16 16 -12 6 -21 7 -21 1z"/>
<path d="M1108 1709 c-17 -10 -14 -39 4 -39 6 0 4 8 -3 17 -12 15 -12 16 4 10
10 -4 16 -3 12 2 -3 5 1 12 7 14 7 3 9 6 3 6 -5 0 -18 -4 -27 -10z"/>
<path d="M1140 1690 c-6 -11 -7 -20 -3 -20 4 -1 -3 -7 -16 -14 -21 -12 -22
-14 -5 -20 10 -4 15 -4 11 0 -4 4 2 13 13 21 12 9 17 20 13 31 -6 15 -5 15 10
4 9 -8 15 -19 14 -25 -1 -7 8 -11 20 -10 17 2 21 -1 17 -15 -5 -14 -4 -15 5
-2 9 13 11 12 12 -5 0 -11 3 -14 6 -7 8 20 -17 43 -39 36 -10 -3 -18 -2 -17 3
3 13 -12 43 -22 43 -4 0 -13 -9 -19 -20z"/>
<path d="M1001 1697 c-2 -21 20 -46 36 -40 12 5 14 3 9 -8 -4 -8 2 -3 13 10
12 13 21 28 20 35 0 7 -2 6 -6 -2 -2 -6 -9 -10 -14 -7 -5 4 -6 0 -4 -7 4 -9
-2 -14 -15 -14 -13 0 -19 5 -15 14 2 7 1 11 -4 7 -5 -3 -12 1 -14 7 -3 7 -6 9
-6 5z"/>
<path d="M860 1675 c-7 -8 -9 -15 -6 -15 4 0 14 7 22 15 9 8 11 15 6 15 -5 0
-15 -7 -22 -15z"/>
<path d="M940 1680 c8 -5 22 -9 30 -9 10 0 8 3 -5 9 -27 12 -43 12 -25 0z"/>
<path d="M1261 1673 c-7 -8 -11 -16 -8 -19 2 -2 10 2 17 11 17 20 9 27 -9 8z"/>
<path d="M908 1673 c6 -2 10 -9 7 -14 -4 -5 2 -6 12 -2 17 6 17 5 1 -14 -10
-11 -18 -24 -18 -29 0 -4 7 1 15 13 10 15 22 20 37 16 14 -3 8 3 -14 16 -21
12 -41 21 -45 20 -5 0 -2 -3 5 -6z"/>
<path d="M887 1654 c4 -10 2 -15 -4 -11 -5 3 -10 0 -10 -7 0 -8 6 -12 14 -9
15 6 17 29 3 38 -6 4 -7 -1 -3 -11z"/>
<path d="M990 1664 c0 -13 18 -39 24 -34 2 3 -2 14 -10 24 -8 11 -14 16 -14
10z"/>
<path d="M1072 1650 c-7 -11 -8 -20 -3 -20 9 0 24 30 18 36 -1 2 -8 -6 -15
-16z"/>
<path d="M1267 1640 c-19 -22 -22 -35 -7 -25 10 6 34 45 28 45 -2 0 -11 -9
-21 -20z"/>
<path d="M1160 1640 c8 -5 20 -10 25 -10 6 0 3 5 -5 10 -8 5 -19 10 -25 10 -5
0 -3 -5 5 -10z"/>
<path d="M928 1607 c-5 -10 -7 -21 -4 -25 3 -3 6 0 6 7 0 7 4 9 10 6 5 -3 7 0
4 9 -4 11 0 13 14 9 11 -2 22 0 26 5 3 6 -5 9 -20 8 -14 0 -30 -9 -36 -19z"/>
<path d="M1027 1623 c-4 -3 -7 -15 -7 -25 0 -11 -5 -16 -11 -13 -6 4 -8 14 -4
24 5 12 4 13 -6 4 -9 -10 -10 -15 0 -27 8 -10 9 -16 1 -21 -5 -3 -10 -11 -10
-17 0 -16 37 34 42 57 4 17 6 16 17 -9 11 -28 13 -28 28 -13 14 14 15 19 4 29
-10 11 -11 10 -6 -3 4 -10 2 -20 -3 -23 -6 -3 -13 5 -16 19 -6 25 -17 31 -29
18z"/>
<path d="M1102 1613 c16 -15 15 -18 -14 -40 -18 -13 -27 -23 -21 -23 7 0 15 5
18 10 4 6 11 7 17 4 7 -5 8 -2 3 6 -6 10 -4 12 9 7 9 -4 15 -3 12 2 -3 5 1 12
10 15 8 3 12 10 9 16 -3 5 -1 10 4 10 18 0 13 -25 -9 -48 -12 -12 -16 -22 -11
-22 6 0 15 9 21 21 9 16 14 18 26 8 10 -8 14 -8 14 0 0 6 -4 11 -9 11 -5 0
-11 9 -14 21 -6 21 -34 21 -29 0 3 -17 -18 -13 -24 4 -4 8 -11 15 -17 15 -6 0
-4 -8 5 -17z"/>
<path d="M1190 1609 c0 -5 4 -8 9 -5 5 4 11 0 14 -6 2 -7 8 -9 13 -5 5 4 2 12
-6 17 -20 13 -30 12 -30 -1z"/>
<path d="M878 1603 c7 -3 16 -2 19 1 4 3 -2 6 -13 5 -11 0 -14 -3 -6 -6z"/>
<path d="M1270 1599 c0 -6 5 -7 10 -4 6 3 10 1 10 -4 0 -6 4 -11 8 -11 17 0 8
26 -10 27 -10 1 -18 -3 -18 -8z"/>
<path d="M885 1580 c-3 -5 -2 -10 4 -10 5 0 13 5 16 10 3 6 2 10 -4 10 -5 0
-13 -4 -16 -10z"/>
<path d="M946 1575 c-10 -8 -23 -12 -27 -9 -5 3 -9 0 -9 -5 0 -15 13 -14 36 4
26 19 35 19 28 -2 -5 -15 -4 -15 4 -3 21 28 -1 38 -32 15z"/>
<path d="M1201 1568 c-1 -19 45 -55 56 -44 3 3 1 6 -6 6 -7 0 -9 4 -6 10 3 6
-1 7 -9 4 -20 -8 -20 0 0 20 8 9 10 16 4 16 -6 0 -14 -8 -17 -17 -6 -15 -7
-15 -14 3 -7 16 -8 17 -8 2z"/>
<path d="M1261 1570 c0 -8 3 -21 8 -28 6 -11 10 -10 15 4 3 9 4 19 1 22 -3 3
-5 -1 -6 -9 0 -8 -4 -6 -9 6 -6 13 -9 15 -9 5z"/>
<path d="M1030 1564 c0 -3 12 -30 27 -59 23 -49 27 -53 39 -37 7 9 10 21 7 25
-3 5 4 6 15 3 11 -4 23 -2 26 3 4 6 -5 9 -21 8 -16 -1 -29 -8 -29 -15 -3 -25
-5 -27 -14 -12 -5 9 -5 19 2 28 8 9 8 16 -1 25 -10 9 -11 8 -6 -4 4 -10 2 -20
-3 -23 -9 -5 -27 39 -24 57 1 4 -2 7 -8 7 -5 0 -10 -3 -10 -6z"/>
<path d="M1156 1555 c-9 -26 -7 -32 5 -12 6 10 9 21 6 23 -2 3 -7 -2 -11 -11z"/>
<path d="M1303 1563 c4 -5 -3 -20 -15 -33 -12 -12 -15 -21 -8 -18 23 7 43 45
29 54 -7 4 -10 3 -6 -3z"/>
<path d="M888 1542 c8 -5 12 -11 11 -13 -2 -2 2 -13 9 -24 11 -20 11 -20 26 0
8 11 12 23 10 27 -6 10 10 11 19 1 4 -3 1 -13 -6 -21 -11 -13 -9 -14 10 -2 21
14 22 14 2 28 -16 11 -23 11 -34 2 -8 -7 -12 -17 -8 -22 3 -6 0 -9 -8 -6 -8 3
-14 11 -14 18 0 7 -7 15 -15 17 -12 4 -12 3 -2 -5z"/>
<path d="M1013 1538 c3 -10 -3 -19 -20 -27 -14 -7 -23 -14 -20 -17 7 -7 57 25
57 37 0 4 -5 11 -12 15 -7 5 -9 2 -5 -8z"/>
<path d="M1104 1535 c11 -8 24 -15 30 -15 5 0 1 7 -10 15 -10 8 -23 14 -29 14
-5 0 -1 -6 9 -14z"/>
<path d="M1170 1529 c-7 -11 -9 -23 -6 -27 3 -3 6 0 6 7 0 7 4 9 10 6 6 -4 7
1 3 12 -6 17 -5 17 15 -1 12 -11 24 -17 26 -15 2 2 -7 12 -20 22 -22 17 -24
17 -34 -4z"/>
<path d="M1300 1505 c-10 -12 -10 -18 0 -30 10 -12 10 -19 2 -27 -7 -7 -12
-16 -12 -22 0 -5 6 -2 13 9 9 12 19 15 28 10 8 -5 4 3 -8 17 -26 27 -31 47 -8
28 10 -9 15 -9 15 -1 0 6 -5 11 -11 11 -5 0 -7 5 -4 10 9 15 -1 12 -15 -5z"/>
<path d="M1034 1497 c5 -15 2 -17 -17 -12 -20 5 -20 5 -4 -6 23 -14 40 0 26
21 -9 12 -10 12 -5 -3z"/>
<path d="M1250 1503 c0 -7 4 -13 8 -13 5 0 14 -10 20 -22 6 -13 11 -18 11 -12
1 7 -8 22 -19 35 -10 13 -19 18 -20 12z"/>
<path d="M1188 1495 c-3 -3 -16 -8 -28 -10 -12 -2 -25 -7 -29 -10 -3 -3 10 -3
28 0 30 5 33 4 21 -10 -8 -10 -9 -15 -1 -15 10 0 15 13 12 33 -2 13 17 7 23
-8 3 -8 0 -15 -6 -15 -6 0 -9 -3 -5 -6 13 -14 27 7 17 27 -11 19 -22 24 -32
14z"/>
<path d="M1230 1491 c0 -10 19 -25 25 -20 1 2 -3 10 -11 17 -8 7 -14 8 -14 3z"/>
<path d="M950 1480 c8 -5 20 -10 25 -10 6 0 3 5 -5 10 -8 5 -19 10 -25 10 -5
0 -3 -5 5 -10z"/>
<path d="M920 1460 c-13 -8 -13 -10 2 -10 9 0 20 5 23 10 8 13 -5 13 -25 0z"/>
<path d="M984 1453 c-4 -10 -6 -21 -6 -25 1 -5 -5 -8 -13 -8 -8 0 -15 -5 -15
-11 0 -7 8 -6 23 4 12 8 21 21 19 27 -1 7 3 10 10 8 7 -3 13 -11 13 -19 0 -17
27 -19 31 -1 1 7 0 8 -3 2 -5 -11 -24 -14 -21 -2 2 11 -13 42 -22 42 -4 0 -11
-8 -16 -17z"/>
<path d="M1051 1465 c-1 -5 8 -21 19 -35 16 -21 21 -23 32 -11 11 12 10 13 -4
8 -10 -4 -18 -3 -18 1 0 5 -7 17 -15 28 -8 10 -14 15 -14 9z"/>
<path d="M1113 1463 c4 -6 1 -14 -5 -17 -7 -3 -4 -4 6 -3 10 1 21 -4 24 -12 3
-9 0 -11 -8 -6 -9 6 -11 4 -5 -5 6 -10 11 -9 22 5 7 11 13 24 12 29 0 6 -3 5
-6 -2 -4 -10 -10 -9 -26 5 -11 10 -17 13 -14 6z"/>
<path d="M950 1445 c-7 -8 -19 -15 -26 -15 -8 0 -14 -5 -14 -10 0 -7 6 -7 18
-1 19 10 49 41 39 41 -2 0 -10 -7 -17 -15z"/>
<path d="M1234 1449 c-3 -6 -2 -15 3 -20 5 -5 9 -1 9 11 0 23 -2 24 -12 9z"/>
<path d="M1262 1440 c0 -14 2 -19 5 -12 2 6 2 18 0 25 -3 6 -5 1 -5 -13z"/>
<path d="M1189 1431 c9 -6 10 -11 2 -15 -14 -9 -14 -26 -1 -26 6 0 9 5 8 11
-2 6 3 14 11 17 9 3 11 0 6 -8 -6 -9 -4 -11 5 -5 10 6 9 11 -5 22 -11 7 -24
13 -29 13 -6 0 -5 -4 3 -9z"/>
<path d="M1156 1414 c-3 -9 -2 -22 2 -31 6 -10 9 -5 9 16 0 35 -2 38 -11 15z"/>
<path d="M919 1393 c-13 -16 -12 -17 4 -4 9 7 17 15 17 17 0 8 -8 3 -21 -13z"/>
<path d="M980 1399 c-13 -9 -12 -10 3 -5 11 3 20 0 23 -9 4 -8 10 -15 15 -15
5 0 4 9 -3 20 -15 23 -18 24 -38 9z"/>
<path d="M1040 1400 c-8 -5 -10 -10 -5 -10 6 0 17 5 25 10 8 5 11 10 5 10 -5
0 -17 -5 -25 -10z"/>
<path d="M1105 1400 c-4 -6 -13 -10 -22 -10 -8 0 -26 -9 -40 -20 -14 -11 -21
-20 -15 -20 6 0 14 5 17 10 5 8 11 7 21 -1 12 -10 17 -9 27 0 9 10 8 11 -4 6
-10 -4 -20 -2 -24 4 -3 7 2 11 14 11 11 0 22 4 26 10 3 5 12 7 20 3 8 -3 15
-3 15 0 0 10 -30 16 -35 7z"/>
<path d="M1240 1400 c0 -5 5 -10 10 -10 6 0 10 5 10 10 0 6 -4 10 -10 10 -5 0
-10 -4 -10 -10z"/>
<path d="M1300 1400 c0 -5 5 -10 10 -10 6 0 10 5 10 10 0 6 -4 10 -10 10 -5 0
-10 -4 -10 -10z"/>
<path d="M926 1364 c-9 -13 -12 -24 -7 -24 5 0 13 9 16 20 4 11 10 18 15 15 5
-3 7 -12 4 -19 -9 -23 25 -27 37 -5 6 11 8 23 6 26 -3 2 -8 -5 -12 -16 -3 -12
-10 -19 -15 -16 -5 3 -7 12 -4 19 10 25 -24 26 -40 0z"/>
<path d="M1220 1374 c8 -8 13 -35 13 -60 -1 -48 8 -62 27 -39 13 15 4 39 -11
30 -5 -4 -9 3 -9 14 0 12 5 20 11 19 21 -5 21 23 0 29 -12 3 -21 9 -21 14 0 5
-5 9 -11 9 -8 0 -7 -5 1 -16z m40 -24 c0 -5 -2 -10 -4 -10 -3 0 -8 5 -11 10
-3 6 -1 10 4 10 6 0 11 -4 11 -10z m-8 -72 c-7 -7 -12 -8 -12 -2 0 14 12 26
19 19 2 -3 -1 -11 -7 -17z"/>
<path d="M1270 1380 c0 -5 5 -10 10 -10 6 0 10 -7 10 -17 0 -9 3 -14 6 -10 8
8 -5 47 -17 47 -5 0 -9 -4 -9 -10z"/>
<path d="M1110 1369 c0 -5 5 -7 10 -4 6 3 10 8 10 11 0 2 -4 4 -10 4 -5 0 -10
-5 -10 -11z"/>
<path d="M1137 1366 c-4 -10 -3 -15 3 -11 6 3 10 1 10 -6 0 -7 3 -10 6 -6 3 3
2 13 -4 22 -8 16 -9 16 -15 1z"/>
<path d="M1180 1361 c-13 -25 3 -37 27 -21 16 9 15 10 -4 5 -18 -5 -22 -3 -17
9 3 9 11 13 17 9 6 -3 7 -1 3 5 -10 16 -14 15 -26 -7z"/>
<path d="M1310 1376 c0 -2 9 -6 20 -9 11 -3 18 -1 14 4 -5 9 -34 13 -34 5z"/>
<path d="M991 1327 c-13 -21 -12 -21 5 -5 10 10 16 20 13 22 -3 3 -11 -5 -18
-17z"/>
<path d="M1037 1339 c-9 -6 -17 -17 -17 -25 0 -8 -4 -13 -9 -10 -4 3 -17 -1
-27 -9 -19 -13 -19 -14 1 -28 11 -9 23 -13 27 -11 5 3 8 -2 8 -10 0 -9 5 -16
10 -16 7 0 7 7 0 20 -6 11 -15 18 -19 15 -5 -2 -15 2 -22 11 -11 13 -10 15 5
12 11 -2 23 6 30 17 16 28 29 36 38 22 6 -9 8 -9 8 0 0 18 -13 23 -33 12z"/>
<path d="M1089 1328 c-6 -11 -8 -22 -6 -25 3 -2 8 4 11 15 5 14 13 18 26 15
11 -3 20 -3 20 0 0 2 -9 7 -20 10 -14 3 -24 -1 -31 -15z"/>
<path d="M930 1320 c0 -5 5 -10 10 -10 6 0 10 5 10 10 0 6 -4 10 -10 10 -5 0
-10 -4 -10 -10z"/>
<path d="M1145 1319 c-4 -6 -13 -8 -21 -5 -8 3 -14 1 -14 -4 0 -13 27 -13 35
0 4 6 11 8 16 5 5 -4 9 -1 9 4 0 14 -17 14 -25 0z"/>
<path d="M1270 1323 c0 -5 5 -15 10 -23 7 -12 9 -10 7 8 -1 19 -17 33 -17 15z"/>
<path d="M1300 1321 c0 -6 5 -13 11 -16 6 -5 4 -11 -7 -19 -10 -8 -14 -18 -10
-25 6 -9 11 -9 22 0 7 6 11 16 7 22 -4 6 0 8 9 4 17 -6 19 16 3 30 -4 4 -5 2
0 -6 5 -9 3 -12 -6 -9 -8 3 -13 11 -11 17 1 6 -2 11 -8 11 -5 0 -10 -4 -10 -9z
m20 -45 c0 -3 -4 -8 -10 -11 -5 -3 -10 -1 -10 4 0 6 5 11 10 11 6 0 10 -2 10
-4z"/>
<path d="M956 1305 c-9 -26 -7 -32 5 -12 6 10 9 21 6 23 -2 3 -7 -2 -11 -11z"/>
<path d="M1040 1316 c0 -2 7 -9 15 -16 9 -7 15 -8 15 -2 0 5 -7 12 -15 16 -8
3 -15 4 -15 2z"/>
<path d="M917 1290 c6 -23 33 -49 33 -31 0 6 -4 11 -10 11 -5 0 -10 6 -10 14
0 8 -4 17 -9 20 -5 4 -7 -3 -4 -14z"/>
<path d="M1177 1304 c-9 -10 4 -34 19 -34 8 0 14 -4 14 -10 0 -5 6 -10 13 -10
6 1 -1 12 -18 26 -29 25 -29 25 -5 19 19 -5 22 -4 10 4 -17 12 -24 13 -33 5z"/>
<path d="M1150 1291 c0 -7 -4 -9 -10 -6 -6 4 -7 -1 -3 -11 6 -15 7 -15 15 1 6
9 7 19 4 22 -3 4 -6 1 -6 -6z"/>
<path d="M1030 1283 c0 -5 5 -15 10 -23 7 -12 9 -10 7 8 -1 19 -17 33 -17 15z"/>
<path d="M1091 1287 c2 -1 13 -9 24 -17 19 -14 19 -14 6 3 -7 9 -18 17 -24 17
-6 0 -8 -1 -6 -3z"/>
<path d="M1067 1273 c9 -3 9 -10 -3 -28 -14 -22 -14 -24 6 -35 12 -6 24 -9 28
-6 3 3 0 6 -7 6 -8 0 -6 8 4 24 15 23 15 25 -4 35 -11 6 -23 11 -28 10 -4 0
-2 -3 4 -6z m23 -33 c-6 -11 -15 -20 -21 -20 -6 0 -6 7 1 20 6 11 15 20 21 20
6 0 6 -7 -1 -20z"/>
<path d="M1156 1253 c-6 -14 -5 -15 5 -6 7 7 10 15 7 18 -3 3 -9 -2 -12 -12z"/>
<path d="M1270 1261 c0 -6 4 -13 10 -16 6 -3 7 1 4 9 -7 18 -14 21 -14 7z"/>
<path d="M1330 1255 c-7 -9 -11 -17 -9 -20 3 -2 10 5 17 15 14 24 10 26 -8 5z"/>
<path d="M913 1245 c0 -8 4 -12 9 -9 5 3 6 10 3 15 -9 13 -12 11 -12 -6z"/>
<path d="M961 1248 c-1 -20 14 -24 25 -6 4 6 3 8 -4 4 -5 -3 -13 0 -15 6 -3 8
-6 6 -6 -4z"/>
<path d="M1130 1229 c11 -19 13 -19 35 -5 18 12 25 12 28 3 3 -7 6 -5 6 6 1
21 -3 21 -34 1 -23 -15 -25 -15 -25 0 0 9 -5 16 -10 16 -7 0 -7 -7 0 -21z"/>
<path d="M1234 1238 c-4 -6 -3 -8 4 -4 5 3 13 0 15 -6 3 -8 6 -6 6 5 1 19 -14
23 -25 5z"/>
<path d="M995 1229 c-4 -6 -5 -12 -2 -15 2 -3 7 2 10 11 7 17 1 20 -8 4z"/>
<path d="M1300 1231 c0 -6 4 -13 10 -16 6 -3 7 1 4 9 -7 18 -14 21 -14 7z"/>
<path d="M942 1210 c7 -11 15 -15 19 -9 4 7 9 5 12 -5 4 -9 1 -16 -5 -16 -6 0
-9 -3 -5 -6 14 -14 27 7 17 27 -6 11 -15 17 -21 14 -5 -4 -9 -1 -9 4 0 6 -5
11 -10 11 -6 0 -5 -8 2 -20z"/>
<path d="M1113 1212 c0 -12 5 -22 9 -22 11 0 10 12 -2 30 -7 12 -9 10 -7 -8z"/>
<path d="M1210 1221 c0 -6 4 -11 9 -11 5 0 11 -9 14 -21 5 -20 30 -24 27 -4
-1 6 9 13 22 17 19 5 18 6 -9 5 -17 -1 -38 5 -47 12 -11 9 -16 10 -16 2z m45
-31 c3 -5 1 -10 -4 -10 -6 0 -11 5 -11 10 0 6 2 10 4 10 3 0 8 -4 11 -10z"/>
<path d="M1006 1204 c-4 -9 -4 -19 -1 -22 3 -3 5 0 5 7 0 7 4 9 10 6 6 -3 7 1
4 9 -8 20 -10 20 -18 0z"/>
<path d="M1042 1204 c10 -10 20 -16 22 -13 3 3 -5 11 -17 18 -21 13 -21 12 -5
-5z"/>
<path d="M1326 1205 c-9 -26 -7 -32 5 -12 6 10 9 21 6 23 -2 3 -7 -2 -11 -11z"/>
<path d="M917 1204 c-3 -4 1 -13 9 -21 19 -20 26 -13 10 9 -7 10 -16 15 -19
12z"/>
<path d="M1182 1199 c9 -5 15 -16 12 -23 -7 -19 9 -27 26 -14 12 8 11 9 -4 4
-14 -5 -17 -2 -12 11 6 16 -9 33 -29 33 -5 -1 -2 -5 7 -11z"/>
<path d="M1148 1193 c6 -2 10 -9 7 -14 -4 -5 1 -6 10 -2 13 5 14 7 3 14 -7 5
-17 8 -23 8 -5 0 -4 -3 3 -6z"/>
<path d="M1090 1183 c0 -7 4 -13 8 -13 5 0 14 -10 20 -22 6 -13 11 -18 11 -12
1 7 -8 22 -19 35 -10 13 -19 18 -20 12z"/>
<path d="M1301 1174 c12 -15 11 -16 -7 -10 -18 5 -21 2 -21 -17 0 -24 0 -24
18 -6 11 11 24 19 30 19 6 0 4 7 -5 15 -20 20 -32 19 -15 -1z"/>
<path d="M1028 1173 c6 -2 9 -10 6 -15 -4 -6 -2 -8 4 -4 6 3 13 2 17 -4 3 -5
1 -10 -6 -10 -7 0 -10 -3 -6 -6 3 -3 10 -3 16 0 15 9 -9 46 -29 45 -10 0 -11
-2 -2 -6z"/>
<path d="M1070 1171 c0 -10 19 -25 25 -20 1 2 -3 10 -11 17 -8 7 -14 8 -14 3z"/>
<path d="M1130 1173 c0 -6 7 -16 15 -23 13 -11 13 -15 3 -21 -7 -5 -8 -9 -2
-9 5 0 18 6 27 13 13 9 14 16 6 27 -9 13 -10 12 -5 -2 8 -25 -10 -22 -28 4 -9
12 -16 17 -16 11z"/>
<path d="M980 1159 c-13 -9 -12 -10 3 -5 11 3 20 0 23 -9 4 -8 10 -15 15 -15
5 0 4 9 -3 20 -15 23 -18 24 -38 9z"/>
<path d="M910 1140 c0 -5 5 -10 10 -10 6 0 10 5 10 10 0 6 -4 10 -10 10 -5 0
-10 -4 -10 -10z"/>
<path d="M1228 1143 c6 -2 18 -2 25 0 6 3 1 5 -13 5 -14 0 -19 -2 -12 -5z"/>
<path d="M1314 1135 c-4 -8 -11 -12 -16 -8 -6 3 -3 -8 8 -25 10 -17 20 -29 23
-27 2 3 -1 11 -7 17 -16 16 -15 23 4 42 8 9 10 16 4 16 -6 0 -13 -7 -16 -15z"/>
<path d="M940 1121 c-11 -22 -3 -31 24 -27 18 2 36 23 35 41 0 6 -5 1 -12 -10
-15 -24 -50 -33 -41 -10 3 8 10 12 15 9 5 -3 9 0 9 5 0 18 -19 12 -30 -8z"/>
<path d="M1074 1129 c-3 -6 -2 -15 3 -20 5 -5 9 -1 9 11 0 23 -2 24 -12 9z"/>
<path d="M1102 1120 c0 -14 2 -19 5 -12 2 6 2 18 0 25 -3 6 -5 1 -5 -13z"/>
<path d="M1186 1124 c-11 -8 -16 -14 -10 -14 13 0 39 18 34 24 -3 2 -14 -2
-24 -10z"/>
<path d="M1230 1116 c7 -7 13 -7 20 0 6 6 3 10 -10 10 -13 0 -16 -4 -10 -10z"/>
<path d="M1029 1111 c9 -6 10 -11 2 -15 -6 -4 -11 -15 -10 -24 0 -12 3 -11 9
6 5 12 14 22 19 22 11 0 3 -38 -10 -46 -13 -8 -11 -24 3 -24 6 0 9 3 6 6 -4 3
0 17 8 32 12 24 12 28 -3 40 -9 6 -22 12 -27 12 -6 0 -5 -4 3 -9z"/>
<path d="M1120 1116 c0 -2 7 -9 15 -16 9 -7 15 -8 15 -2 0 5 -7 12 -15 16 -8
3 -15 4 -15 2z"/>
<path d="M991 1087 c-13 -21 -12 -21 5 -5 10 10 16 20 13 22 -3 3 -11 -5 -18
-17z"/>
<path d="M1195 1096 c-10 -7 -15 -18 -11 -24 4 -7 9 -22 11 -33 3 -12 7 -24
10 -28 3 -3 3 10 0 28 -5 30 -4 33 10 21 10 -8 15 -9 15 -1 0 10 -13 15 -32
12 -5 0 -8 3 -8 8 0 14 28 21 34 8 3 -9 5 -9 5 0 1 19 -15 23 -34 9z"/>
<path d="M1249 1087 c-6 -10 -8 -21 -5 -25 3 -3 6 0 6 8 0 10 3 10 18 -1 14
-11 15 -11 5 1 -18 20 -16 35 2 20 9 -7 18 -10 22 -6 3 3 1 6 -6 6 -7 0 -10 4
-7 8 3 5 -2 9 -10 9 -8 0 -20 -9 -25 -20z"/>
<path d="M1091 1073 c12 -15 12 -16 -4 -10 -10 4 -16 3 -12 -2 3 -5 -1 -12 -7
-14 -8 -3 -9 -6 -2 -6 16 -1 66 40 59 47 -3 4 -10 0 -15 -8 -7 -10 -10 -11
-10 -2 0 6 -5 12 -11 12 -8 0 -7 -6 2 -17z"/>
<path d="M930 1073 c-8 -2 -21 -7 -29 -9 -12 -4 -12 -8 2 -21 14 -14 19 -15
29 -4 11 10 10 11 -3 6 -10 -4 -20 -2 -24 4 -3 7 2 11 14 11 11 0 23 5 26 10
3 6 5 10 3 9 -2 0 -10 -3 -18 -6z"/>
<path d="M956 1065 c-9 -26 -7 -32 5 -12 6 10 9 21 6 23 -2 3 -7 -2 -11 -11z"/>
<path d="M1135 1071 c-6 -11 33 -36 43 -27 3 3 0 6 -7 6 -7 0 -9 4 -6 10 4 6
-1 7 -11 3 -12 -4 -15 -3 -10 5 4 7 5 12 2 12 -3 0 -7 -4 -11 -9z"/>
<path d="M988 1059 c-20 -11 -24 -29 -7 -29 5 0 7 5 3 11 -4 8 1 9 17 5 13 -3
18 -3 11 0 -6 3 -10 10 -6 15 7 11 3 11 -18 -2z"/>
<path d="M1102 1042 c-8 -6 -2 -9 18 -9 20 0 26 3 18 9 -7 4 -15 8 -18 8 -3 0
-11 -4 -18 -8z"/>
<path d="M1269 1033 c12 -8 25 -12 28 -9 4 3 1 6 -6 6 -7 0 -10 4 -7 8 2 4 -5
9 -16 9 -21 2 -21 2 1 -14z"/>
<path d="M883 1025 c0 -8 4 -12 8 -9 4 2 10 -2 12 -8 4 -8 6 -9 6 -2 1 6 -5
17 -12 23 -10 8 -14 7 -14 -4z"/>
<path d="M1228 1033 c9 -3 10 -9 2 -18 -6 -7 -8 -20 -4 -29 5 -13 9 -13 25 7
17 20 17 23 2 35 -9 6 -22 12 -27 11 -6 0 -5 -3 2 -6z m22 -28 c-7 -9 -15 -13
-17 -11 -7 7 7 26 19 26 6 0 6 -6 -2 -15z"/>
<path d="M929 1009 c-6 -11 -8 -23 -6 -26 3 -2 8 5 12 16 3 12 10 19 15 16 5
-3 7 -13 4 -23 -5 -14 -4 -15 5 -2 14 20 14 27 -4 34 -9 3 -19 -3 -26 -15z"/>
<path d="M995 1017 c-14 -11 -15 -16 -5 -22 8 -5 11 -4 7 2 -4 6 0 13 8 17 18
6 19 1 4 -25 -8 -16 -13 -18 -25 -8 -10 8 -14 8 -14 0 0 -6 4 -11 9 -11 5 0
11 -9 14 -21 5 -20 30 -24 27 -5 -1 5 9 14 22 20 16 9 22 20 20 37 -2 24 -2
23 22 -6 14 -16 25 -24 26 -17 0 6 -4 12 -10 12 -5 0 -10 6 -10 14 0 16 -27
29 -35 16 -3 -4 -2 -15 1 -24 5 -12 2 -15 -12 -10 -14 4 -15 3 -6 -4 11 -7 9
-10 -8 -15 -12 -3 -19 -10 -15 -16 3 -6 1 -11 -4 -11 -16 0 -13 17 5 46 21 31
7 51 -21 31z"/>
<path d="M1173 1005 c0 -30 8 -37 27 -23 12 8 11 9 -3 4 -15 -5 -17 -2 -12 13
3 11 2 22 -3 25 -5 3 -9 -6 -9 -19z"/>
<path d="M1110 1010 c0 -5 5 -10 10 -10 6 0 10 5 10 10 0 6 -4 10 -10 10 -5 0
-10 -4 -10 -10z"/>
<path d="M1145 1000 c-4 -11 -11 -17 -17 -14 -7 5 -8 2 -3 -6 6 -10 11 -9 22
5 13 19 17 35 9 35 -3 0 -8 -9 -11 -20z"/>
<path d="M880 996 c0 -2 7 -9 15 -16 9 -7 15 -8 15 -2 0 5 -7 12 -15 16 -8 3
-15 4 -15 2z"/>
<path d="M946 956 c10 -8 21 -12 24 -10 5 6 -21 24 -34 24 -6 0 -1 -6 10 -14z"/>
<path d="M1060 954 c-11 -13 -10 -16 9 -21 17 -4 19 -8 9 -14 -7 -5 -8 -9 -3
-9 6 0 17 4 24 9 12 8 9 11 -12 16 -15 4 -24 11 -21 17 3 5 13 7 21 4 8 -3 11
-1 8 4 -9 14 -21 12 -35 -6z"/>
<path d="M1145 960 c-3 -5 0 -7 8 -4 8 3 18 1 22 -5 3 -6 -1 -11 -10 -11 -9 0
-29 -10 -43 -22 -15 -12 -19 -18 -9 -15 9 4 17 2 17 -3 0 -6 5 -10 11 -10 8 0
9 4 0 13 -12 15 -5 27 17 27 7 0 25 9 39 20 14 11 21 20 16 20 -5 0 -14 -5
-20 -11 -8 -8 -13 -8 -17 0 -9 14 -23 14 -31 1z"/>
<path d="M908 953 c6 -2 10 -9 7 -14 -4 -5 0 -6 7 -4 9 4 14 -2 14 -15 0 -13
-5 -19 -14 -15 -7 2 -10 0 -7 -5 3 -6 1 -10 -6 -10 -7 0 -10 -3 -6 -6 3 -3 25
6 49 20 42 25 47 37 6 15 -18 -10 -20 -9 -15 5 6 15 -19 37 -40 35 -4 0 -2 -3
5 -6z"/>
<path d="M1110 950 c0 -5 5 -10 10 -10 6 0 10 5 10 10 0 6 -4 10 -10 10 -5 0
-10 -4 -10 -10z"/>
<path d="M870 940 c0 -5 5 -10 10 -10 6 0 10 -7 10 -17 0 -14 -2 -14 -21 3
-22 19 -22 19 -8 -3 8 -13 17 -23 21 -23 13 0 19 20 13 40 -7 21 -25 28 -25
10z"/>
<path d="M1020 920 c-8 -5 -10 -10 -5 -10 6 0 17 5 25 10 8 5 11 10 5 10 -5 0
-17 -5 -25 -10z"/>
<path d="M1180 920 c-8 -5 -10 -10 -5 -10 6 0 17 5 25 10 8 5 11 10 5 10 -5 0
-17 -5 -25 -10z"/>
<path d="M1245 920 c-4 -6 1 -7 12 -3 16 6 16 5 4 -10 -16 -20 -5 -23 14 -3
12 12 12 15 -1 20 -21 8 -22 8 -29 -4z"/>
<path d="M1197 900 c-18 -15 -27 -17 -30 -8 -3 7 -6 8 -6 2 -1 -5 5 -18 12
-27 9 -13 16 -14 27 -6 13 9 12 10 -2 5 -27 -8 -21 10 10 33 15 11 24 21 21
21 -4 0 -18 -9 -32 -20z"/>
<path d="M979 903 c-1 -5 -1 -12 0 -17 1 -5 -4 -6 -12 -3 -8 3 -20 2 -27 -3
-7 -4 6 -7 31 -5 55 3 54 2 39 20 -13 16 -29 20 -31 8z m26 -13 c3 -5 2 -10
-4 -10 -5 0 -13 5 -16 10 -3 6 -2 10 4 10 5 0 13 -4 16 -10z"/>
<path d="M1035 899 c-4 -6 -4 -13 -1 -16 3 -4 6 -1 6 5 0 7 5 12 10 12 7 0 7
-7 0 -22 -11 -22 -10 -22 4 -4 15 19 13 36 -4 36 -5 0 -12 -5 -15 -11z"/>
<path d="M1081 895 c0 -5 3 -16 8 -23 7 -11 9 -10 14 3 4 9 3 14 -2 10 -5 -3
-12 1 -14 7 -3 7 -6 9 -6 3z"/>
<path d="M1230 889 c0 -5 -4 -7 -10 -4 -6 4 -7 -1 -3 -11 4 -11 8 -13 11 -6 2
7 8 10 13 7 5 -4 6 1 3 9 -7 18 -14 21 -14 5z"/>
<path d="M1115 870 c-3 -6 1 -7 9 -4 18 7 21 14 7 14 -6 0 -13 -4 -16 -10z"/>
<path d="M833 854 c0 -11 3 -11 16 -1 12 10 14 9 8 -6 -4 -10 -7 -21 -7 -23 0
-3 -4 -3 -9 1 -16 9 -23 -13 -11 -35 11 -20 33 -24 30 -6 -1 5 9 14 22 20 16
9 22 20 20 37 -2 24 -2 23 22 -6 14 -16 25 -24 26 -17 0 6 -4 12 -10 12 -5 0
-10 6 -10 14 0 16 -27 29 -35 16 -3 -4 -2 -15 1 -24 5 -12 2 -15 -12 -10 -14
4 -15 3 -6 -4 11 -7 9 -10 -8 -15 -12 -3 -19 -10 -15 -16 3 -6 2 -11 -3 -11
-6 0 -13 7 -16 16 -8 22 -8 26 3 19 11 -6 36 34 27 43 -13 12 -33 9 -33 -4z"/>
<path d="M1010 855 c-9 -11 -15 -13 -20 -5 -5 8 -9 6 -13 -5 -4 -9 -3 -13 3
-10 10 6 14 -7 11 -32 -2 -19 16 -24 29 -8 13 15 4 39 -11 30 -5 -4 -9 -2 -9
4 0 5 8 14 17 20 10 5 15 12 12 15 -3 4 -12 -1 -19 -9z m2 -57 c-7 -7 -12 -8
-12 -2 0 14 12 26 19 19 2 -3 -1 -11 -7 -17z"/>
<path d="M1070 864 c0 -6 7 -17 15 -24 9 -7 13 -15 10 -18 -3 -3 -14 3 -25 13
-23 21 -46 9 -29 -15 9 -13 10 -12 5 3 -7 21 7 22 24 2 10 -12 10 -15 0 -15
-8 0 -11 -3 -8 -6 10 -9 49 16 43 27 -4 5 0 9 8 9 27 0 27 -14 0 -32 -16 -10
-24 -18 -20 -18 4 0 19 7 32 16 30 20 22 48 -12 41 -15 -3 -27 2 -33 12 -5 9
-10 11 -10 5z"/>
<path d="M1150 864 c0 -13 18 -39 24 -34 2 3 -2 14 -10 24 -8 11 -14 16 -14
10z"/>
<path d="M1254 855 c-4 -8 -11 -12 -17 -8 -5 3 -7 1 -3 -5 3 -6 2 -13 -4 -17
-5 -3 -10 1 -10 9 0 9 -5 16 -10 16 -7 0 -7 -6 0 -20 6 -10 16 -17 24 -14 13
5 41 54 30 54 -2 0 -7 -7 -10 -15z"/>
<path d="M950 849 c0 -5 5 -7 10 -4 6 3 10 8 10 11 0 2 -4 4 -10 4 -5 0 -10
-5 -10 -11z"/>
<path d="M1184 815 c-3 -8 -4 -20 -2 -27 3 -7 7 -1 10 15 6 29 1 36 -8 12z"/>
<path d="M1154 809 c-3 -6 -2 -15 3 -20 5 -5 9 -1 9 11 0 23 -2 24 -12 9z"/>
<path d="M901 796 c-9 -10 -9 -16 -1 -21 13 -8 42 14 34 26 -8 13 -20 11 -33
-5z m24 -6 c-3 -5 -11 -10 -16 -10 -6 0 -7 5 -4 10 3 6 11 10 16 10 6 0 7 -4
4 -10z"/>
<path d="M796 783 c-6 -14 -5 -15 5 -6 7 7 10 15 7 18 -3 3 -9 -2 -12 -12z"/>
<path d="M950 789 c0 -5 5 -7 10 -4 6 3 10 1 10 -4 0 -6 5 -11 11 -11 8 0 8 5
-1 15 -14 17 -30 20 -30 4z"/>
<path d="M1035 790 c-3 -5 -3 -15 1 -22 5 -8 2 -9 -11 -4 -18 7 -35 -8 -35
-29 1 -5 5 -2 11 8 6 9 14 15 19 12 11 -7 50 16 50 29 0 4 -8 2 -17 -5 -15
-12 -16 -12 -10 4 7 18 2 23 -8 7z"/>
<path d="M1217 780 c-8 -11 -17 -17 -22 -12 -5 4 -5 1 -1 -5 11 -20 22 -16 34
12 14 30 8 33 -11 5z"/>
<path d="M1119 788 c-1 -1 -3 -16 -5 -33 -2 -24 -1 -27 7 -12 6 9 14 15 20 12
5 -3 17 -1 26 5 16 9 15 10 -5 5 -15 -4 -22 -2 -20 5 3 11 -20 28 -23 18z m21
-12 c0 -3 -4 -8 -10 -11 -5 -3 -10 -1 -10 4 0 6 5 11 10 11 6 0 10 -2 10 -4z"/>
<path d="M1082 766 c2 -10 -3 -21 -11 -24 -9 -3 -11 0 -6 8 6 9 4 11 -5 5 -10
-6 -9 -11 5 -22 11 -7 24 -13 29 -12 6 0 5 3 -2 6 -9 3 -10 9 -3 17 6 8 6 17
0 26 -8 12 -9 11 -7 -4z"/>
<path d="M810 760 c0 -5 5 -10 10 -10 6 0 10 5 10 10 0 6 -4 10 -10 10 -5 0
-10 -4 -10 -10z"/>
<path d="M870 760 c0 -5 5 -10 10 -10 6 0 10 5 10 10 0 6 -4 10 -10 10 -5 0
-10 -4 -10 -10z"/>
<path d="M930 761 c0 -5 -10 -11 -22 -15 -22 -5 -22 -6 -6 -23 14 -14 20 -15
30 -4 11 10 10 11 -3 6 -10 -4 -20 -2 -23 3 -3 6 5 13 19 16 24 6 36 26 15 26
-5 0 -10 -4 -10 -9z"/>
<path d="M793 724 c0 -23 1 -24 9 -10 7 12 7 21 0 28 -6 6 -9 0 -9 -18z"/>
<path d="M833 731 c-3 -12 -9 -21 -14 -21 -5 0 -9 -5 -9 -11 0 -8 4 -8 14 0
12 10 17 8 25 -8 13 -23 14 -34 3 -27 -4 2 -16 -2 -27 -11 -20 -14 -20 -15 -1
-28 10 -8 23 -12 29 -8 5 3 6 -3 3 -15 -9 -27 8 -36 28 -16 18 18 20 30 6 39
-6 4 -8 11 -5 16 4 5 1 9 -4 9 -15 0 -14 -13 1 -28 10 -10 8 -16 -6 -30 -18
-16 -19 -16 -12 2 8 24 -11 47 -32 39 -15 -6 -15 -5 -3 10 7 9 17 15 21 12 17
-11 21 17 6 40 -19 28 -20 45 -5 45 5 0 7 -5 4 -11 -4 -6 3 -13 15 -16 17 -5
19 -8 8 -15 -10 -7 -8 -8 5 -4 15 5 17 2 12 -13 -3 -11 -1 -22 4 -25 11 -7 51
31 51 48 0 6 -11 -2 -25 -19 -24 -29 -25 -30 -22 -6 1 17 -5 28 -21 37 -13 6
-23 15 -22 20 3 19 -22 15 -27 -5z"/>
<path d="M1175 740 c3 -5 14 -10 23 -10 15 0 15 2 2 10 -20 13 -33 13 -25 0z"/>
<path d="M950 729 c0 -5 4 -8 9 -5 5 3 11 -1 15 -9 3 -8 0 -15 -6 -15 -6 0 -9
-3 -5 -6 13 -14 27 7 17 27 -11 20 -30 26 -30 8z"/>
<path d="M1006 724 c-4 -9 -4 -19 -1 -22 3 -3 5 0 5 7 0 7 4 9 10 6 6 -3 7 1
4 9 -8 20 -10 20 -18 0z"/>
<path d="M1042 724 c10 -10 20 -16 22 -13 3 3 -5 11 -17 18 -21 13 -21 12 -5
-5z"/>
<path d="M1131 724 c-1 -28 -11 -36 -28 -23 -17 15 -17 2 1 -16 11 -12 15 -10
26 10 7 13 10 29 7 37 -3 8 -6 5 -6 -8z"/>
<path d="M1154 720 c0 -13 4 -16 10 -10 7 7 7 13 0 20 -6 6 -10 3 -10 -10z"/>
<path d="M765 719 c-4 -6 -5 -12 -2 -15 2 -3 7 2 10 11 7 17 1 20 -8 4z"/>
<path d="M1041 679 c23 -19 23 -20 2 -14 -12 3 -24 1 -27 -4 -4 -6 4 -9 19 -8
14 1 25 5 25 9 -1 21 -14 38 -27 38 -11 0 -8 -6 8 -21z"/>
<path d="M1070 691 c0 -10 19 -25 25 -20 1 2 -3 10 -11 17 -8 7 -14 8 -14 3z"/>
<path d="M770 680 c0 -5 5 -10 10 -10 6 0 10 5 10 10 0 6 -4 10 -10 10 -5 0
-10 -4 -10 -10z"/>
<path d="M980 681 c-8 -6 -18 -7 -22 -5 -4 3 -8 0 -8 -6 0 -8 7 -9 18 -5 9 4
23 8 30 8 6 0 12 4 12 9 0 10 -11 10 -30 -1z"/>
<path d="M1135 680 c-4 -7 -2 -17 5 -23 10 -9 12 -8 7 6 -7 18 8 24 16 7 3 -6
4 -5 3 2 -3 16 -23 21 -31 8z"/>
<path d="M745 669 c-4 -6 -5 -12 -2 -15 2 -3 7 2 10 11 7 17 1 20 -8 4z"/>
<path d="M796 665 c-9 -26 -7 -32 5 -12 6 10 9 21 6 23 -2 3 -7 -2 -11 -11z"/>
<path d="M760 654 c0 -5 7 -19 15 -30 8 -10 15 -14 15 -9 0 6 5 3 11 -5 7 -10
9 -11 7 -2 -2 8 -7 12 -12 10 -4 -2 -14 8 -21 22 -8 14 -14 20 -15 14z"/>
<path d="M990 651 c0 -7 -4 -9 -10 -6 -6 4 -7 -1 -3 -12 6 -17 5 -17 -15 1
-12 11 -24 17 -26 15 -2 -2 7 -12 20 -22 22 -17 24 -17 34 4 7 11 9 23 6 27
-3 3 -6 0 -6 -7z"/>
<path d="M1074 649 c-3 -6 -2 -15 3 -20 5 -5 9 -1 9 11 0 23 -2 24 -12 9z"/>
<path d="M1120 641 c0 -10 19 -25 25 -20 1 2 -3 10 -11 17 -8 7 -14 8 -14 3z"/>
<path d="M737 633 c-4 -3 -7 -11 -7 -17 0 -6 5 -5 12 2 6 6 9 14 7 17 -3 3 -9
2 -12 -2z"/>
<path d="M908 633 c6 -2 10 -9 7 -14 -4 -5 1 -6 9 -3 12 4 14 0 10 -23 -4 -27
-4 -27 11 -8 15 18 14 21 -6 38 -12 9 -26 17 -33 16 -7 0 -6 -2 2 -6z"/>
<path d="M1036 625 c10 -8 24 -14 29 -14 6 0 1 6 -9 14 -11 8 -24 15 -30 15
-5 0 -1 -7 10 -15z"/>
<path d="M999 620 c-1 -5 -3 -14 -4 -20 -1 -5 -3 -13 -4 -17 -1 -5 -6 -1 -11
7 -6 9 -10 10 -10 3 0 -34 35 -20 37 15 2 21 -6 32 -8 12z"/>
<path d="M710 605 c0 -8 4 -15 10 -15 5 0 7 7 4 15 -4 8 -8 15 -10 15 -2 0 -4
-7 -4 -15z"/>
<path d="M756 595 c4 -8 8 -15 10 -15 2 0 4 7 4 15 0 8 -4 15 -10 15 -5 0 -7
-7 -4 -15z"/>
<path d="M820 597 c0 -9 -3 -16 -7 -15 -5 0 -16 -2 -26 -7 -16 -7 -15 -10 11
-25 16 -10 38 -20 48 -22 16 -4 14 -7 -10 -17 -28 -11 -28 -13 -13 -28 14 -14
19 -15 29 -4 11 10 10 11 -3 6 -10 -4 -20 -2 -23 3 -3 6 6 13 20 16 31 8 27
28 -7 36 -16 4 -20 8 -11 14 6 4 18 4 25 0 10 -6 10 -4 0 7 -10 9 -16 10 -24
2 -13 -13 -42 -6 -33 8 3 5 10 7 15 4 11 -7 25 23 15 32 -3 4 -6 -1 -6 -10z"/>
<path d="M1026 595 c4 -8 8 -15 10 -15 2 0 4 7 4 15 0 8 -4 15 -10 15 -5 0 -7
-7 -4 -15z"/>
<path d="M1066 595 c-11 -8 -18 -17 -15 -19 2 -3 15 4 29 14 14 11 21 20 15
19 -5 0 -19 -6 -29 -14z"/>
<path d="M685 579 c-5 -8 -4 -10 3 -5 7 4 12 2 12 -3 0 -6 -7 -11 -15 -11 -22
0 -35 -32 -21 -52 11 -15 13 -15 24 3 7 11 8 19 2 19 -5 0 -10 -5 -10 -11 0
-5 -4 -8 -10 -4 -13 8 -1 35 15 35 19 0 29 20 17 32 -6 6 -12 6 -17 -3z"/>
<path d="M734 579 c-7 -12 32 -49 51 -48 6 0 1 6 -9 14 -11 8 -23 15 -28 15
-4 0 -5 7 -2 15 7 18 -2 20 -12 4z"/>
<path d="M880 560 c-8 -5 -12 -11 -10 -14 3 -2 14 2 24 10 22 15 10 19 -14 4z"/>
<path d="M1026 556 c10 -8 21 -12 24 -10 5 6 -21 24 -34 24 -6 0 -1 -6 10 -14z"/>
<path d="M908 549 c-11 -6 -15 -16 -11 -26 5 -12 3 -14 -8 -9 -8 4 -3 -2 10
-13 13 -12 28 -21 35 -20 7 0 6 2 -2 6 -6 2 -10 9 -7 14 4 5 0 6 -7 4 -9 -4
-14 2 -14 15 0 13 5 19 14 15 7 -2 11 -1 7 4 -3 5 1 12 7 14 7 3 9 6 3 6 -5 0
-18 -4 -27 -10z"/>
<path d="M988 553 c6 -2 10 -9 7 -14 -4 -5 2 -6 11 -2 13 5 15 3 9 -8 -4 -8
-5 -11 0 -7 4 4 13 4 19 -1 7 -6 20 -2 36 11 l25 20 -25 -15 c-23 -13 -28 -13
-49 4 -13 11 -28 19 -35 18 -7 0 -6 -2 2 -6z"/>
<path d="M710 540 c0 -5 5 -10 10 -10 6 0 10 5 10 10 0 6 -4 10 -10 10 -5 0
-10 -4 -10 -10z"/>
<path d="M945 530 c-7 -21 0 -40 16 -40 5 0 9 5 9 11 0 5 -4 7 -10 4 -5 -3
-10 1 -10 9 0 21 17 29 24 11 3 -8 10 -15 16 -15 5 0 2 9 -7 20 -22 25 -30 25
-38 0z"/>
<path d="M730 520 c-8 -5 -10 -10 -5 -10 6 0 17 5 25 10 8 5 11 10 5 10 -5 0
-17 -5 -25 -10z"/>
<path d="M790 520 c-13 -8 -12 -10 3 -10 9 0 17 5 17 10 0 12 -1 12 -20 0z"/>
<path d="M689 487 c-8 -17 -17 -23 -27 -20 -10 4 -13 2 -8 -5 4 -7 11 -12 15
-12 12 0 44 50 37 57 -3 3 -10 -6 -17 -20z"/>
<path d="M744 493 c-4 -10 -6 -21 -6 -25 3 -12 -16 -9 -21 2 -3 6 -4 5 -3 -2
3 -16 31 -17 31 -1 0 7 6 18 14 25 12 11 13 10 8 -4 -7 -20 17 -42 38 -34 10
4 15 -1 15 -14 0 -10 4 -21 9 -24 15 -10 -1 43 -17 56 -12 10 -14 10 -8 1 5
-9 1 -13 -10 -13 -10 0 -14 3 -11 6 8 8 -11 44 -22 44 -5 0 -12 -8 -17 -17z"/>
<path d="M991 491 c-34 -26 -19 -46 20 -26 16 9 29 18 29 21 0 2 -13 -2 -30
-11 -17 -9 -30 -11 -30 -5 0 5 4 10 8 10 5 0 17 7 28 15 10 8 15 14 9 14 -5 1
-21 -8 -34 -18z"/>
<path d="M628 488 c5 -5 16 -8 23 -6 8 3 3 7 -10 11 -17 4 -21 3 -13 -5z"/>
<path d="M870 491 c0 -9 30 -24 36 -18 2 1 -6 8 -16 15 -11 7 -20 8 -20 3z"/>
<path d="M608 479 c10 -14 10 -18 -3 -23 -8 -3 -15 0 -15 6 0 6 -2 9 -5 6 -8
-8 6 -38 18 -38 6 0 7 3 4 7 -4 3 0 11 9 18 14 10 14 13 -3 26 -16 13 -17 12
-5 -2z"/>
<path d="M850 448 c-12 -22 -12 -22 6 -6 10 10 15 20 12 24 -4 3 -12 -5 -18
-18z"/>
<path d="M916 455 c-23 -23 -20 -32 4 -10 19 18 20 17 21 -6 1 -19 2 -20 6 -5
7 27 -11 40 -31 21z"/>
<path d="M882 440 c0 -14 2 -19 5 -12 2 6 2 18 0 25 -3 6 -5 1 -5 -13z"/>
<path d="M690 441 c0 -15 40 -24 54 -12 7 6 16 8 19 4 4 -3 7 -1 7 5 0 15 -5
15 -31 0 -17 -10 -23 -10 -26 0 -5 14 -23 16 -23 3z"/>
<path d="M548 411 c4 -10 7 -11 10 -3 2 7 8 12 13 12 6 0 5 -9 -1 -22 -11 -22
-10 -22 4 -4 18 22 13 35 -13 33 -12 -1 -17 -6 -13 -16z"/>
<path d="M635 420 c28 -12 37 -12 30 0 -3 6 -16 10 -28 9 -21 0 -21 -1 -2 -9z"/>
<path d="M777 424 c-12 -13 6 -34 24 -29 13 4 18 2 17 -5 -2 -7 2 -14 8 -17
12 -4 49 45 40 54 -3 3 -11 -6 -17 -21 -12 -26 -31 -36 -26 -13 1 6 -5 13 -13
13 -32 3 -34 6 -15 14 15 6 16 9 4 9 -9 1 -18 -2 -22 -5z"/>
<path d="M907 416 c-14 -11 -15 -15 -4 -19 8 -3 20 -1 28 4 11 7 11 9 1 9 -7
0 -10 5 -7 10 8 13 4 12 -18 -4z"/>
<path d="M606 401 c4 -16 3 -21 -5 -17 -6 4 -11 2 -11 -3 0 -19 19 -12 31 10
6 13 7 19 1 15 -6 -3 -13 0 -16 6 -3 7 -3 2 0 -11z"/>
<path d="M681 417 c-2 -21 20 -46 36 -40 12 5 14 3 9 -8 -4 -8 2 -3 13 10 12
13 21 28 20 35 0 7 -2 6 -6 -2 -2 -6 -9 -10 -14 -7 -5 4 -6 0 -4 -7 4 -9 -2
-14 -15 -14 -13 0 -19 5 -15 14 2 7 1 11 -4 7 -5 -3 -12 1 -14 7 -3 7 -6 9 -6
5z"/>
<path d="M520 402 c0 -5 7 -15 15 -22 8 -7 15 -9 15 -6 0 4 -7 14 -15 22 -8 9
-15 11 -15 6z"/>
<path d="M635 390 c-3 -6 1 -7 9 -4 18 7 21 14 7 14 -6 0 -13 -4 -16 -10z"/>
<path d="M870 391 c0 -10 30 -24 37 -17 3 2 -5 9 -16 16 -12 6 -21 7 -21 1z"/>
<path d="M670 384 c0 -13 18 -39 24 -34 2 3 -2 14 -10 24 -8 11 -14 16 -14 10z"/>
<path d="M752 370 c-7 -11 -8 -20 -3 -20 9 0 24 30 18 36 -1 2 -8 -6 -15 -16z"/>
<path d="M510 356 c0 -17 27 -29 36 -15 3 6 3 13 0 16 -3 4 -6 1 -6 -6 0 -7
-5 -9 -10 -6 -6 4 -8 11 -5 16 4 5 1 9 -4 9 -6 0 -11 -6 -11 -14z"/>
<path d="M570 360 c8 -5 20 -10 25 -10 6 0 3 5 -5 10 -8 5 -19 10 -25 10 -5 0
-3 -5 5 -10z"/>
<path d="M615 360 c-3 -5 -3 -10 2 -10 4 -1 -3 -7 -17 -15 -29 -16 -19 -20 11
-4 11 5 17 14 14 20 -4 5 0 9 8 9 27 0 27 -14 0 -32 -16 -10 -24 -18 -20 -18
19 0 55 33 50 46 -6 16 -39 19 -48 4z"/>
<path d="M795 360 c27 -12 43 -12 25 0 -8 5 -22 9 -30 9 -10 0 -8 -3 5 -9z"/>
<path d="M860 360 c8 -5 20 -10 25 -10 6 0 3 5 -5 10 -8 5 -19 10 -25 10 -5 0
-3 -5 5 -10z"/>
<path d="M469 350 c-15 -9 -21 -47 -9 -52 3 -2 16 5 30 15 13 9 20 17 16 17
-5 0 -17 -7 -27 -16 -17 -15 -18 -15 -16 5 1 12 7 21 14 21 7 0 13 5 13 10 0
12 -1 12 -21 0z"/>
<path d="M559 340 c-3 -20 -4 -25 -12 -37 -9 -15 1 -40 18 -47 15 -5 31 11 21
21 -3 4 -6 1 -6 -6 0 -7 -5 -9 -10 -6 -6 4 -7 11 -4 17 4 7 2 8 -4 4 -7 -4
-12 -3 -12 2 0 16 13 22 27 11 8 -7 13 -8 13 -1 0 5 -7 12 -15 16 -8 3 -12 12
-9 21 3 8 3 15 0 15 -3 0 -7 -4 -7 -10z"/>
<path d="M707 343 c-4 -3 -7 -15 -7 -25 0 -11 -5 -16 -11 -13 -6 4 -8 14 -4
24 5 12 4 13 -6 4 -10 -10 -9 -15 1 -28 7 -8 9 -15 6 -15 -4 0 -2 -9 4 -20 6
-11 16 -17 25 -14 17 7 20 34 4 34 -5 0 -8 -4 -4 -9 3 -5 1 -12 -4 -15 -12 -8
-22 19 -11 30 4 5 10 18 12 29 4 17 6 16 17 -9 11 -28 13 -28 28 -13 14 14 15
19 4 29 -10 11 -11 10 -6 -3 4 -10 2 -20 -3 -23 -6 -3 -13 5 -16 19 -6 25 -17
31 -29 18z"/>
<path d="M780 335 c14 -17 30 -20 30 -4 0 5 -4 7 -10 4 -5 -3 -10 -1 -10 4 0
6 -5 11 -11 11 -8 0 -8 -5 1 -15z"/>
<path d="M833 338 c-19 -25 -24 -38 -14 -38 6 0 11 7 11 15 0 7 8 19 18 24 9
6 12 11 6 11 -6 0 -16 -6 -21 -12z"/>
<path d="M499 301 c-23 -19 -23 -21 -6 -37 10 -11 17 -14 17 -6 0 7 -4 12 -10
12 -5 0 -10 5 -10 11 0 5 5 7 12 3 7 -5 8 -3 3 6 -6 10 -4 12 9 7 9 -4 15 -3
11 2 -3 5 1 12 7 14 8 4 9 6 2 6 -7 1 -22 -8 -35 -18z"/>
<path d="M426 294 c-4 -9 -4 -19 -1 -22 3 -3 5 0 5 7 0 7 4 9 10 6 6 -3 7 1 4
9 -8 20 -10 20 -18 0z"/>
<path d="M460 271 c0 -7 -3 -10 -8 -7 -4 2 -16 -2 -27 -11 -20 -14 -20 -15 -1
-28 10 -8 23 -12 27 -9 5 3 9 1 9 -5 0 -5 -6 -12 -12 -14 -10 -4 -10 -6 -1 -6
18 -1 26 18 13 34 -6 8 -19 11 -28 8 -15 -6 -15 -5 -3 10 7 9 17 15 21 12 10
-6 24 14 16 22 -3 4 -6 1 -6 -6z"/>
<path d="M350 258 c13 -16 13 -38 -1 -38 -5 0 -7 5 -4 10 10 17 -25 24 -41 9
-12 -13 -11 -17 6 -32 11 -9 20 -12 20 -7 0 6 -7 13 -15 16 -8 4 -12 10 -9 15
8 13 34 11 32 -2 -5 -21 23 -21 29 0 3 12 9 21 14 21 5 0 9 5 9 11 0 8 -4 8
-13 0 -9 -7 -18 -7 -25 -1 -9 7 -9 7 -2 -2z"/>
<path d="M470 243 c0 -5 5 -15 10 -23 7 -12 9 -10 7 8 -1 19 -17 33 -17 15z"/>
<path d="M546 236 c10 -8 21 -12 24 -10 5 6 -21 24 -34 24 -6 0 -1 -6 10 -14z"/>
<path d="M586 242 c-2 -4 4 -8 14 -8 10 0 16 4 14 8 -3 4 -9 8 -14 8 -5 0 -11
-4 -14 -8z"/>
<path d="M635 239 c-11 -16 -1 -19 13 -3 7 8 8 14 3 14 -5 0 -13 -5 -16 -11z"/>
<path d="M390 235 c0 -5 5 -17 10 -25 5 -8 10 -10 10 -5 0 6 -5 17 -10 25 -5
8 -10 11 -10 5z"/>
<path d="M508 231 c10 -6 10 -10 -3 -21 -8 -7 -15 -17 -15 -23 0 -6 7 -1 16
11 18 26 36 29 28 5 -5 -15 -4 -16 5 -3 8 11 7 18 -6 28 -9 6 -22 12 -27 12
-6 0 -5 -4 2 -9z"/>
<path d="M588 213 c6 -2 18 -2 25 0 6 3 1 5 -13 5 -14 0 -19 -2 -12 -5z"/>
<path d="M280 200 c8 -5 20 -10 25 -10 6 0 3 5 -5 10 -8 5 -19 10 -25 10 -5 0
-3 -5 5 -10z"/>
<path d="M358 199 c-10 -5 -18 -15 -18 -22 0 -8 3 -9 8 -1 4 6 16 16 27 22 11
6 16 11 10 11 -5 0 -18 -4 -27 -10z"/>
<path d="M416 195 c-5 -14 30 -42 41 -32 2 3 -5 8 -16 12 -12 4 -18 12 -14 21
3 7 3 14 0 14 -3 0 -7 -7 -11 -15z"/>
<path d="M554 199 c-9 -16 2 -22 21 -11 15 8 16 10 1 15 -8 3 -18 2 -22 -4z"/>
<path d="M375 180 c-3 -5 -2 -10 4 -10 5 0 13 5 16 10 3 6 2 10 -4 10 -5 0
-13 -4 -16 -10z"/>
<path d="M472 175 c3 -21 16 -35 33 -35 6 0 6 3 -1 8 -6 4 -16 16 -23 27 l-11
20 2 -20z"/>
<path d="M515 180 c3 -6 1 -10 -6 -10 -7 0 -10 -3 -6 -6 3 -3 13 -2 22 4 16 8
16 9 1 15 -10 4 -15 3 -11 -3z"/>
<path d="M614 179 c-5 -9 -2 -10 9 -6 18 7 24 -8 7 -16 -6 -3 -5 -4 2 -3 16 3
17 28 1 33 -6 2 -15 -1 -19 -8z"/>
<path d="M590 171 c0 -7 -4 -9 -10 -6 -6 4 -7 -1 -3 -11 6 -15 7 -15 15 1 6 9
7 19 4 22 -3 4 -6 1 -6 -6z"/>
<path d="M540 160 c-9 -6 -10 -10 -3 -10 6 0 15 5 18 10 8 12 4 12 -15 0z"/>
<path d="M751 140 c-13 -11 -18 -20 -13 -20 6 0 13 4 17 10 3 5 11 8 18 6 7
-1 9 -1 4 1 -4 3 -5 9 -1 14 8 13 2 11 -25 -11z"/>
<path d="M555 140 c-3 -5 -1 -10 4 -10 6 0 11 5 11 10 0 6 -2 10 -4 10 -3 0
-8 -4 -11 -10z"/>
</g>
</svg>
